<svg xmlns="http://www.w3.org/2000/svg" x="0px" y="0px" viewBox="0 0 1024.1 620.4" style="enable-background:new 0 0 1024.1 620.4;" xml:space="preserve">

<g id="circles-3">

</g>

<g id="content-3">

	<circle cx="877" cy="505.3" r="106.4" style="fill:none; stroke:#DA695A; stroke-width:1;s troke-miterlimit:10;"/>
	<circle cx="911.8" cy="332.3" r="61" style="fill:#DA695A"/>
	<circle cx="890.7" cy="210.9" r="52.4" style="fill:#DA695A"/>
	<circle cx="846.9" cy="124.6" r="37" style="opacity:0.65;fill:#743638;"/>
	<circle cx="810.1" cy="73.6" r="16.2" style="opacity:0.65;fill:#743638;"/>

	<g>
		<polyline class="arrow" points="793.9,90.1 512.1,377.1 765.1,470.9"/>
		<polygon points="796.4,87.5 791.4,89.7 793.7,90.2 794.3,92.5"/>
		<polygon points="768.4,472.1 763.1,472.3 764.9,470.8 764.5,468.5"/>
	</g>

	<g>
		<polyline class="arrow" points="811.9,151 512.1,377.1 840.8,340.3"/>
		<polygon points="814.7,148.9 809.5,150.2 811.7,151.2 812,153.5"/>
		<polygon points="844.3,339.9 839.6,342.4 840.5,340.3 839.1,338.4"/>
	</g>
	<g>
		<line class="arrow" x1="512.1" y1="377.1" x2="831.9" y2="236.8"/>
		<polygon points="835.1,235.3 831.4,239.2 831.6,236.9 829.7,235.5"/>
	</g>


	<text transform="matrix(1 0 0 1 31.8074 50.0122)" class="bold-text font-size-36">Вивезені на примусові роботи</text>
	<text transform="matrix(1 0 0 1 31.8074 75.2122)" class="font-size-21">Доля мешканців України, вивезених на примусові </text>
	<text transform="matrix(1 0 0 1 31.8074 100.4122)" class="font-size-21">роботи до Німеччини</text>

	<g id="texty-logo">
			<path d="M125.4,604.7c0,2.2-0.5,4.1-1.5,5.6c-1.2,1.7-2.9,2.6-5.1,2.6c-2,0-3.6-0.7-4.8-2.2c-1.2-1.5-1.8-3.5-1.8-6   c0-2.3,0.5-4.2,1.6-5.7c1.2-1.6,2.8-2.4,4.9-2.4s3.8,0.8,4.9,2.4C124.8,600.3,125.4,602.3,125.4,604.7z M124,604.6   c0-2.1-0.5-3.8-1.4-5s-2.2-1.9-3.9-1.9c-1.7,0-3,0.7-3.9,2.1c-0.9,1.3-1.3,2.9-1.3,4.8c0,2,0.4,3.6,1.2,4.8   c0.9,1.4,2.3,2.1,4.1,2.1c1.8,0,3.1-0.7,4-2.1C123.6,608.2,124,606.6,124,604.6z" />
			<path d="M104.3,606.6v6.1H101v-6.2l-5.2-9.7h3.8l3.1,6.4l3.1-6.4h3.7L104.3,606.6z"/>
			<path d="M95.1,599.8h-4.6v13h-3.4v-13h-4.6v-3h12.6V599.8z"/>
			<path d="M76.9,604.4l5.4,8.3h-4l-3.4-5.5l-3.4,5.5h-3.8l5.4-8.3l-5-7.6H72l3.1,5.1l3.1-5.1h3.7L76.9,604.4z"/>
			<path d="M66.3,599.7H60v3.5h5.6v2.8H60v3.9h6.4v2.9h-9.7v-15.9h9.6V599.7z"/>
			<path d="M55.3,599.8h-4.6v13h-3.4v-13h-4.6v-3h12.6C55.3,596.8,55.3,599.8,55.3,599.8z"/>
			<path d="M152.6,612.4h-1.1v-2.7c-0.5,1-1.2,1.8-2.1,2.3c-0.9,0.5-1.9,0.8-3.2,0.8c-2.1,0-3.6-0.8-4.7-2.4c-1-1.5-1.5-3.4-1.5-5.9   s0.6-4.4,1.7-5.9c1.2-1.5,2.8-2.2,4.8-2.2c1.6,0,2.9,0.4,3.9,1.2c1.1,0.8,1.7,2,2,3.7H151c-0.2-1.1-0.8-2-1.6-2.7   c-0.8-0.6-1.8-1-2.9-1c-1.8,0-3.1,0.7-4,2s-1.3,3-1.3,5.3c0,1.8,0.5,3.3,1.4,4.5c1,1.3,2.2,1.9,3.8,1.9c1.4,0,2.5-0.5,3.4-1.4   c0.5-0.5,0.8-1.2,1.1-1.9s0.4-1.6,0.4-2.6h-4.8v-1.3h6.1L152.6,612.4L152.6,612.4z"/>
			<path d="M170.3,606.3c0,2.2-0.5,3.8-1.5,4.9c-1,1.1-2.4,1.6-4.2,1.6c-1.7,0-3.1-0.5-4.1-1.4c-1.1-1.1-1.7-2.8-1.7-5.1v-9.5h1.4v9.1   c0,2,0.4,3.4,1.1,4.3c0.7,0.9,1.8,1.3,3.2,1.3s2.5-0.4,3.2-1.2c0.8-0.9,1.1-2.3,1.1-4.3v-9.1h1.4v9.4H170.3z"/>
			<path d="M183.8,612.8h-1.4l-1.7-5H174l-1.7,5h-1.4l5.8-15.9h1.6L183.8,612.8z M180.2,606.5l-2.9-8.3l-2.9,8.3H180.2z"/>
			<circle cx="109.8" cy="611.3" r="1.4"/>
			<circle	cx="156.6" cy="611.3" r="1.4"/>
			<path d="M139.3,612.7l-4.4-6.9c0.5-0.1,0.8-0.2,1.3-0.5c2.1-0.9,2.4-3.4,2.4-4.4c0-1.5-0.4-2.6-1.3-3.3c-0.8-0.6-2-0.9-3.7-0.9   h-5.8v16.1h1.4V606h4.1l4.4,6.8L139.3,612.7z M129.1,598h4.5c1.3,0,2.3,0.3,2.8,0.9c0.5,0.5,0.7,1.2,0.7,2.1c0,1-0.3,2.3-1,2.9   c-0.6,0.6-1.5,0.8-2.6,0.8h-4.4V598z"/>
		</g>


	<circle cx="469.5" cy="159.7" r="70" class="red"/>
	<circle cx="580.8" cy="373.3" r="139.9" style="fill:#DA695A"/>
	<circle cx="443.7" cy="558.9" r="46.6" style="fill:none;stroke:#DA695A;stroke-miterlimit:10;"/>
	<g>
		<line class="arrow" x1="290.3" y1="439" x2="400" y2="524.7"/>
		<polygon points="402.8,526.9 397.7,525.5 399.8,524.6 400.2,522.3"/>
	</g>
	<g>
		<line class="arrow" x1="396.5" y1="193.3" x2="301.2" y2="252.2"/>
		<polygon points="399.6,191.5 394.3,192.4 396.3,193.5 396.4,195.8"/>
	</g>
	<g>
		<line class="arrow" x1="324.7" y1="350.6" x2="430.8" y2="358.5"/>
		<polygon points="434.3,358.7 429.2,360.4 430.5,358.5 429.5,356.3"/>
	</g>

	<circle cx="161.6" cy="338.4" r="161.6" style="opacity:0.65;fill:#743638;enable-background:new;"/>
	<text transform="matrix(1 0 0 1 112.7676 313.4081)" class="fill-white bold-text" style="font-size:24px">2.4 млн </text>
	<text transform="matrix(1 0 0 1 94.4676 327.4081)" class="fill-white font-size-14">мешканців України </text>
	<text transform="matrix(1 0 0 1 120.1676 341.4081)" class="fill-white font-size-14">вивезли на </text>
	<text transform="matrix(1 0 0 1 98.6676 355.4081)" class="fill-white font-size-14">примусові роботи </text>
	<text transform="matrix(1 0 0 1 112.2676 369.4081)" class="fill-white font-size-14">до Німеччини</text>
	<text transform="matrix(1 0 0 1 428.6585 158.2054)" class="bold-text fill-white font-size-14">400-450 тис.</text>
	<text transform="matrix(1 0 0 1 440.4585 172.2054)" class="fill-white font-size-14">загинули</text>
	<text transform="matrix(1 0 0 1 556.9719 357.9151)" class="bold-text fill-white font-size-14">1.8 млн </text>
	<text transform="matrix(1 0 0 1 537.4719 371.9151)" class="fill-white font-size-14">повернулися </text>
	<text transform="matrix(1 0 0 1 544.9719 385.9151)" class="fill-white font-size-14">до України</text>
	<text transform="matrix(1 0 0 1 403.1229 546.7425)" class="bold-text font-size-14">150-200 тис.</text>
	<text transform="matrix(1 0 0 1 401.8229 560.7425)" class="font-size-14">відмовилися </text>
	<text transform="matrix(1 0 0 1 402.3229 574.7425)" class="font-size-14">повертатися</text>
	<text transform="matrix(1 0 0 1 848.8834 495.4924)" class="bold-text font-size-14">1.04 млн</text>
	<text transform="matrix(1 0 0 1 817.7834 509.4924)" class="font-size-14">змогли потрапити </text>
	<text transform="matrix(1 0 0 1 852.4834 523.4924)" class="font-size-14">додому</text>
	<text transform="matrix(1 0 0 1 883.97 315.9301)" class="bold-text fill-white font-size-14">342 тис.</text>
	<text transform="matrix(1 0 0 1 870.47 329.9301)" class="fill-white font-size-14">мобілізовані </text>
	<text transform="matrix(1 0 0 1 871.3699 343.9301)" class="fill-white font-size-14">до Червоної </text>
	<text transform="matrix(1 0 0 1 896.0698 357.9301)" class="fill-white font-size-14">армії</text>
	<text transform="matrix(1 0 0 1 863.0654 190.3162)" class="bold-text fill-white font-size-14">252 тис.</text>
	<text transform="matrix(1 0 0 1 849.6654 204.3162)" class="fill-white font-size-14">мобілізовані </text>
	<text transform="matrix(1 0 0 1 847.5654 218.3162)" class="fill-white font-size-14">до «трудових </text>
	<text transform="matrix(1 0 0 1 847.7654 232.3162)" class="fill-white font-size-14">батальйонів»</text>
	<text transform="matrix(1 0 0 1 822.3513 118.9913)" class="bold-text fill-white font-size-14">126 тис.</text>
	<text transform="matrix(1 0 0 1 821.0513 132.9913)" class="fill-white font-size-14">арешто- </text>
	<text transform="matrix(1 0 0 1 831.9513 146.9913)" class="fill-white font-size-14">вано</text>
	<text transform="matrix(1 0 0 1 807.9247 31.2609)" class="bold-text font-size-14">24 тис.</text>
	<text transform="matrix(1 0 0 1 807.9247 46.2609)" class="font-size-14">працювали в радянських </text>
	<text transform="matrix(1 0 0 1 807.9247 61.2609)" class="font-size-14">військових частинах за </text>
	<text transform="matrix(1 0 0 1 807.9247 76.2609)" class="font-size-14">кордоном</text>

	</g>
</svg>
