<?xml version="1.0" encoding="UTF-8" standalone="no"?>
<svg
   xmlns:dc="http://purl.org/dc/elements/1.1/"
   xmlns:cc="http://creativecommons.org/ns#"
   xmlns:rdf="http://www.w3.org/1999/02/22-rdf-syntax-ns#"
   xmlns:svg="http://www.w3.org/2000/svg"
   xmlns="http://www.w3.org/2000/svg"
   xml:space="preserve"
   style="enable-background:new 0 0 1045.9 631.9;"
   viewBox="0 0 1045.9 631.9"
   id="Layer_1"
   version="1.1">

	<g
   id="circles-4">
	<circle
   id="circle_4_1"
   style="opacity:0.65;fill:#CC281A;enable-background:new;"
   r="189.1"
   cy="423.9"
   cx="200" />

	<circle
   r="159.75"
   id="circle_4_2"
   style="opacity:0.72000002;fill:#910000;stroke-width:1;enable-background:new"
   cy="457.8027"
   cx="550.18903" />

	<circle
   id="circle_4_3"
   style="opacity:0.65;fill:#743638;enable-background:new;"
   r="130.5"
   cy="190.3"
   cx="422.8" />



	<circle
   id="circle_4_4"
   style="opacity:0.72;fill:#910000;enable-background:new;"
   r="63.9"
   cy="131.8"
   cx="612.7" />

	<circle
   id="circle_4_5"
   r="58.3"
   cy="254.1"
   cx="653.7"
   class="st7" />

	<circle
   id="circle_4_6"
   style="opacity:0.72;fill:#910000;enable-background:new;"
   r="70.6"
   cy="358"
   cx="770.3" />

	<circle
   id="circle_4_7"
   style="opacity:0.72;fill:#910000;enable-background:new;"
   r="53.6"
   cy="511"
   cx="776.2" />

	<circle
   id="circle_4_8"
   style="opacity:0.72;fill:#910000;enable-background:new;"
   r="28.8"
   cy="440.6"
   cx="845.6" />
	</g>

	<circle
   id="circle_4_9"
   style="opacity:0.72;fill:#910000;enable-background:new;"
   r="52.2"
   cy="231.6"
   cx="422.8" />

	<g
   id="content-4">

		



		<text

   class="bold-text font-size-36"
   transform="matrix(1 0 0 1 39.1177 55.7267)">Смерті та масові переселення</text>


<g
   id="g39">
	<g
   id="g37">
		<path
   id="path31"
   d="M721.4,246.3c135.8,0.5,219-86.2,219-86.2"
   class="arrow" />
		<g
   id="g35">
			<polygon
   id="polygon33"
   points="717.9,246.2 722.8,248.2 721.7,246.2 722.8,244.2    " />
		</g>
	</g>
</g>
<g
   id="g49">
	<g
   id="g47">
		<path
   id="path41"
   d="M838.3,516.4c61.4-1.1,60.2-68.9,60.2-68.9"
   class="arrow" />
		<g
   id="g45">
			<polygon
   id="polygon43"
   points="834.8,516.4 839.7,518.3 838.5,516.3 839.7,514.3    " />
		</g>
	</g>
</g>
<g
   id="g59">
	<g
   id="g57">
		<path
   id="path51"
   d="M871.9,416.4c11.3-42.4,51.4-58.4,51.4-58.4"
   class="arrow" />
		<g
   id="g55">
			<polygon
   id="polygon53"
   points="871,419.8 874.2,415.5 872,416.2 870.3,414.5    " />
		</g>
	</g>
</g>
<g
   id="g69">
	<g
   id="g67">
		<path
   id="path61"
   d="M822.3,297.7c25-30.4,58.7-23.4,58.7-23.4"
   class="arrow" />
		<g
   id="g65">
			<polygon
   id="polygon63"
   points="820.1,300.5 824.8,297.8 822.5,297.5 821.6,295.3    " />
		</g>
	</g>
</g>
<text

   class="font-size-14"
   transform="matrix(1 0 0 1 937.823 226.8478)">1943–44 рр.</text>


<text

   class="font-size-14"
   transform="matrix(1 0 0 1 908.0231 243.6479)">Цивільні жертви </text>


<text

   class="font-size-14"
   transform="matrix(1 0 0 1 877.723 260.4479)">німецьких каральних </text>


<text

   class="font-size-14"
   transform="matrix(1 0 0 1 884.723 277.2479)">операцій за дії УПА:</text>


<text

   class="font-size-14"
   transform="matrix(1 0 0 1 885.823 327.6479)">Втрати бійців УПА в </text>


<text

   class="font-size-14"
   transform="matrix(1 0 0 1 883.723 344.4479)">боях з радянськими </text>


<text

   class="font-size-14"
   transform="matrix(1 0 0 1 927.1229 361.2479)">партизанами:</text>


<text

   class="font-size-14"
   transform="matrix(1 0 0 1 912.1229 411.6479)">Втрати бійців та </text>


<text

   class="font-size-14"
   transform="matrix(1 0 0 1 901.0231 428.4479)">симпатиків УПА у </text>


<text

   class="font-size-14"
   transform="matrix(1 0 0 1 897.5231 445.2479)">війні проти німців:</text>



<text

   class="fill-white font-size-14"
   transform="matrix(1 0 0 1 173.1578 393.7065)">210 тис.</text>


<text

   class="fill-white font-size-14"
   transform="matrix(1 0 0 1 134.5578 409.7065)"> мешканців Західної </text>


<text

   class="fill-white font-size-14"
   transform="matrix(1 0 0 1 117.0578 425.7065)">України радянська влада </text>


<text

   class="fill-white font-size-14"
   transform="matrix(1 0 0 1 122.5578 441.7065)">депортувала до Сибіру, </text>


<text

   class="fill-white font-size-14"
   transform="matrix(1 0 0 1 138.0578 457.7065)">Далекого Сходу та </text>


<text

   class="fill-white font-size-14"
   transform="matrix(1 0 0 1 143.7578 473.7065)">Центральної Азії, </text>


<text

   class="fill-white font-size-14"
   transform="matrix(1 0 0 1 147.6578 489.7065)">06.1944–12.1952</text>



<text

   class="fill-white font-size-14"
   transform="matrix(1 0 0 1 389.6697 147.1159)">103.8 тис. </text>


<text

   class="fill-white font-size-14"
   transform="matrix(1 0 0 1 374.1697 161.1159)">заарештовано</text>



<text

   class="fill-white font-size-14"
   transform="matrix(1 0 0 1 579.7809 130.5964)">21-24 тис. </text>


<text

   class="fill-white font-size-14"
   transform="matrix(1 0 0 1 582.481 144.5964)">загиблих</text>



<text

   class="fill-white font-size-14"
   transform="matrix(1 0 0 1 629.9187 251.1647)">20 тис. </text>


<text

   class="fill-white font-size-14"
   transform="matrix(1 0 0 1 624.7186 265.1647)">біженців</text>



<text

   class="fill-white font-size-14"
   transform="matrix(1 0 0 1 517.0036 437.9406)">155.1 тис. </text>


<text

   class="fill-white font-size-14"
   transform="matrix(1 0 0 1 510.5036 451.9406)">повстанців, </text>


<text

   class="fill-white font-size-14"
   transform="matrix(1 0 0 1 472.9035 465.9406)">симпатиків і цивільних</text>


<text

   class="fill-white font-size-14"
   transform="matrix(1 0 0 1 488.5036 479.9406)">загинуло в боях з </text>


<text

   class="fill-white font-size-14"
   transform="matrix(1 0 0 1 483.9035 493.9406)">Червоною Армією і </text>


<text

   class="fill-white font-size-14"
   transform="matrix(1 0 0 1 508.0036 507.9406)">розстріляно </text>


<text

   class="font-size-14"
   transform="matrix(1 0 0 1 923.9215 85.9396)">1942–1945 рр. </text>


<text

   class="font-size-14"
   transform="matrix(1 0 0 1 821.7214 100.9396)">Українсько-польська війна на </text>


<text

   class="font-size-14"
   transform="matrix(1 0 0 1 881.0215 115.9396)">території Холмщини, </text>


<text

   class="font-size-14"
   transform="matrix(1 0 0 1 813.9215 130.9396)">Грубешівщини, Берестейщини, </text>


<text

   class="font-size-14"
   transform="matrix(1 0 0 1 912.9215 145.9396)">Полісся, Волині  </text>


<text

   class="font-size-14"
   transform="matrix(1 0 0 1 941.9215 160.9396)">і Галичини:</text>


<text

   class="font-size-21"
   transform="matrix(1 0 0 1 39.8456 81.9203)">Боротьба НКВС і ОУН-УПА </text>


<text

   class="font-size-14"
   transform="matrix(1 0 0 1 39.8456 163.3691)">1944–1947 роки </text>


<text

   class="font-size-14"
   transform="matrix(1 0 0 1 39.8456 178.3691)">Боротьба НКВС і ОУН-УПА </text>


<text

   class="font-size-14"
   transform="matrix(1 0 0 1 39.8456 193.3691)">на західних землях:</text>


<g
   id="g167">
	<g
   id="g165">
		<path
   id="path159"
   d="M940.4,160.1c0,0-173.9,70.2-258.5-22"
   class="arrow" />
		<g
   id="g163">
			<polygon
   id="polygon161"
   points="679.6,135.5 684.4,137.8 682.1,138.3 681.4,140.5    " />
		</g>
	</g>
</g>

<text class="fill-white font-size-14" transform="matrix(1 0 0 1 747.1339 515.0043)">17.3 тис. </text>


<text class="fill-white font-size-14" transform="matrix(1 0 0 1 826.3053 446.9106)">5 тис. </text>


<text class="fill-white font-size-14" transform="matrix(1 0 0 1 737.5457 362.1109)">25-30 тис. </text>



<text class="fill-white font-size-14" transform="matrix(1 0 0 1 395.402 231.1694)">16.1 тис. </text>


<text class="fill-white font-size-14" transform="matrix(1 0 0 1 392.002 245.1694)">страчено</text>




	<g
   id="texty-logo">
			<path
   id="path83"
   d="M125.4,604.7c0,2.2-0.5,4.1-1.5,5.6c-1.2,1.7-2.9,2.6-5.1,2.6c-2,0-3.6-0.7-4.8-2.2c-1.2-1.5-1.8-3.5-1.8-6   c0-2.3,0.5-4.2,1.6-5.7c1.2-1.6,2.8-2.4,4.9-2.4s3.8,0.8,4.9,2.4C124.8,600.3,125.4,602.3,125.4,604.7z M124,604.6   c0-2.1-0.5-3.8-1.4-5s-2.2-1.9-3.9-1.9c-1.7,0-3,0.7-3.9,2.1c-0.9,1.3-1.3,2.9-1.3,4.8c0,2,0.4,3.6,1.2,4.8   c0.9,1.4,2.3,2.1,4.1,2.1c1.8,0,3.1-0.7,4-2.1C123.6,608.2,124,606.6,124,604.6z" />
			<path
   id="path85"
   d="M104.3,606.6v6.1H101v-6.2l-5.2-9.7h3.8l3.1,6.4l3.1-6.4h3.7L104.3,606.6z" />
			<path
   id="path87"
   d="M95.1,599.8h-4.6v13h-3.4v-13h-4.6v-3h12.6V599.8z" />
			<path
   id="path89"
   d="M76.9,604.4l5.4,8.3h-4l-3.4-5.5l-3.4,5.5h-3.8l5.4-8.3l-5-7.6H72l3.1,5.1l3.1-5.1h3.7L76.9,604.4z" />
			<path
   id="path91"
   d="M66.3,599.7H60v3.5h5.6v2.8H60v3.9h6.4v2.9h-9.7v-15.9h9.6V599.7z" />
			<path
   id="path93"
   d="M55.3,599.8h-4.6v13h-3.4v-13h-4.6v-3h12.6C55.3,596.8,55.3,599.8,55.3,599.8z" />
			<path
   id="path95"
   d="M152.6,612.4h-1.1v-2.7c-0.5,1-1.2,1.8-2.1,2.3c-0.9,0.5-1.9,0.8-3.2,0.8c-2.1,0-3.6-0.8-4.7-2.4c-1-1.5-1.5-3.4-1.5-5.9   s0.6-4.4,1.7-5.9c1.2-1.5,2.8-2.2,4.8-2.2c1.6,0,2.9,0.4,3.9,1.2c1.1,0.8,1.7,2,2,3.7H151c-0.2-1.1-0.8-2-1.6-2.7   c-0.8-0.6-1.8-1-2.9-1c-1.8,0-3.1,0.7-4,2s-1.3,3-1.3,5.3c0,1.8,0.5,3.3,1.4,4.5c1,1.3,2.2,1.9,3.8,1.9c1.4,0,2.5-0.5,3.4-1.4   c0.5-0.5,0.8-1.2,1.1-1.9s0.4-1.6,0.4-2.6h-4.8v-1.3h6.1L152.6,612.4L152.6,612.4z" />
			<path
   id="path97"
   d="M170.3,606.3c0,2.2-0.5,3.8-1.5,4.9c-1,1.1-2.4,1.6-4.2,1.6c-1.7,0-3.1-0.5-4.1-1.4c-1.1-1.1-1.7-2.8-1.7-5.1v-9.5h1.4v9.1   c0,2,0.4,3.4,1.1,4.3c0.7,0.9,1.8,1.3,3.2,1.3s2.5-0.4,3.2-1.2c0.8-0.9,1.1-2.3,1.1-4.3v-9.1h1.4v9.4H170.3z" />
			<path
   id="path99"
   d="M183.8,612.8h-1.4l-1.7-5H174l-1.7,5h-1.4l5.8-15.9h1.6L183.8,612.8z M180.2,606.5l-2.9-8.3l-2.9,8.3H180.2z" />
			<circle
   id="circle101"
   r="1.4"
   cy="611.3"
   cx="109.8" />
			<circle
   id="circle103"
   r="1.4"
   cy="611.3"
   cx="156.6" />
			<path
   id="path105"
   d="M139.3,612.7l-4.4-6.9c0.5-0.1,0.8-0.2,1.3-0.5c2.1-0.9,2.4-3.4,2.4-4.4c0-1.5-0.4-2.6-1.3-3.3c-0.8-0.6-2-0.9-3.7-0.9   h-5.8v16.1h1.4V606h4.1l4.4,6.8L139.3,612.7z M129.1,598h4.5c1.3,0,2.3,0.3,2.8,0.9c0.5,0.5,0.7,1.2,0.7,2.1c0,1-0.3,2.3-1,2.9   c-0.6,0.6-1.5,0.8-2.6,0.8h-4.4V598z" />
		</g>

	</g>
</svg>