<?xml version="1.0" encoding="UTF-8" standalone="no"?>
<svg
   xmlns:dc="http://purl.org/dc/elements/1.1/"
   xmlns:cc="http://creativecommons.org/ns#"
   xmlns:rdf="http://www.w3.org/1999/02/22-rdf-syntax-ns#"
   xmlns:svg="http://www.w3.org/2000/svg"
   xmlns="http://www.w3.org/2000/svg"
   xmlns:sodipodi="http://sodipodi.sourceforge.net/DTD/sodipodi-0.dtd"
   xmlns:inkscape="http://www.inkscape.org/namespaces/inkscape"
   xml:space="preserve"
   style="enable-background:new 0 0 1045.9 631.9;"
   viewBox="0 0 1045.9 631.9"
   y="0px"
   x="0px"
   id="Layer_1"
   version="1.1"
   sodipodi:docname="05.svg"
   inkscape:version="0.92.4 (unknown)"><metadata
   id="metadata63"><rdf:RDF><cc:Work
       rdf:about=""><dc:format>image/svg+xml</dc:format><dc:type
         rdf:resource="http://purl.org/dc/dcmitype/StillImage" /></cc:Work></rdf:RDF></metadata><defs
   id="defs61" /><sodipodi:namedview
   pagecolor="#ffffff"
   bordercolor="#666666"
   borderopacity="1"
   objecttolerance="10"
   gridtolerance="10"
   guidetolerance="10"
   inkscape:pageopacity="0"
   inkscape:pageshadow="2"
   inkscape:window-width="1859"
   inkscape:window-height="1056"
   id="namedview59"
   showgrid="false"
   inkscape:zoom="1.120566"
   inkscape:cx="449.74264"
   inkscape:cy="444.93777"
   inkscape:window-x="61"
   inkscape:window-y="24"
   inkscape:window-maximized="1"
   inkscape:current-layer="circles-5" />

	<g
   id="circles-5">

	<circle
   id="circle_5_1"
   style="opacity:0.65;fill:#CC281A;"
   r="203"
   cy="219.3"
   cx="773.2" />

	<circle
   id="circle_5_2"
   style="opacity:0.65;fill:#CC281A;"
   r="111.2"
   cy="510.4"
   cx="907.9" />

	<circle
   id="circle_5_3"
   style="opacity:0.65;fill:#CC281A;"
   r="168.7"
   cy="452.9"
   cx="474.2" />


	<circle
   id="circle_5_4"
   style="opacity:0.65;fill:#cc281a;stroke-width:1"
   cy="166.06401"
   cx="473.86768"
   r="43.899998" />

	<circle
   id="circle_5_5"
   style="opacity:0.65;fill:#CC281A;"
   r="22.6"
   cy="236.1"
   cx="413.8" />

	</g>

	<g
   id="content-5">


		<text
   id="text3"
   class="bold-text font-size-36"
   transform="matrix(1 0 0 1 39.1177 55.7267)">Смерті та масові переселення</text>

		<g
   id="g29">
			<path
   id="path5"
   d="M121.8,604.7c0,2.2-0.5,4.1-1.5,5.6c-1.2,1.7-2.9,2.6-5.1,2.6c-2,0-3.6-0.7-4.8-2.2c-1.2-1.5-1.8-3.5-1.8-6     c0-2.3,0.5-4.2,1.6-5.7c1.2-1.6,2.8-2.4,4.9-2.4s3.8,0.8,4.9,2.4C121.2,600.3,121.8,602.3,121.8,604.7z M120.4,604.6     c0-2.1-0.5-3.8-1.4-5s-2.2-1.9-3.9-1.9c-1.7,0-3,0.7-3.9,2.1c-0.9,1.3-1.3,2.9-1.3,4.8c0,2,0.4,3.6,1.2,4.8     c0.9,1.4,2.3,2.1,4.1,2.1c1.8,0,3.1-0.7,4-2.1C120,608.1,120.4,606.6,120.4,604.6z" />
			<path
   id="path7"
   d="M100.7,606.6v6.1h-3.3v-6.2l-5.2-9.7H96l3.1,6.4l3.1-6.4h3.7L100.7,606.6z" />
			<path
   id="path9"
   d="M91.5,599.8h-4.6v13h-3.4v-13h-4.6v-3h12.6V599.8z" />
			<path
   id="path11"
   d="M73.3,604.4l5.4,8.3h-4l-3.4-5.5l-3.4,5.6h-3.8l5.4-8.3l-5-7.6h3.9l3.1,5.1l3.1-5.1h3.7L73.3,604.4z" />
			<path
   id="path13"
   d="M62.7,599.7h-6.3v3.5H62v2.8h-5.6v3.9h6.4v2.9h-9.7v-16h9.6C62.7,596.8,62.7,599.7,62.7,599.7z" />
			<path
   id="path15"
   d="M51.7,599.8h-4.6v13h-3.4v-13h-4.6v-3h12.6C51.7,596.8,51.7,599.8,51.7,599.8z" />
			<path
   id="path17"
   d="M149,612.4h-1.1v-2.7c-0.5,1-1.2,1.8-2.1,2.3c-0.9,0.5-1.9,0.8-3.2,0.8c-2.1,0-3.6-0.8-4.7-2.4c-1-1.5-1.5-3.4-1.5-5.9     s0.6-4.4,1.7-5.9c1.2-1.5,2.8-2.2,4.8-2.2c1.6,0,2.9,0.4,3.9,1.2c1.1,0.8,1.7,2,2,3.7h-1.4c-0.2-1.1-0.8-2-1.6-2.7     c-0.8-0.6-1.8-1-2.9-1c-1.8,0-3.1,0.7-4,2s-1.3,3-1.3,5.3c0,1.8,0.5,3.3,1.4,4.5c1,1.3,2.2,1.9,3.8,1.9c1.4,0,2.5-0.5,3.4-1.4     c0.5-0.5,0.8-1.2,1.1-1.9s0.4-1.6,0.4-2.6h-4.8v-1.3h6.1L149,612.4L149,612.4z" />
			<path
   id="path19"
   d="M166.7,606.3c0,2.2-0.5,3.8-1.5,4.9c-1,1.1-2.4,1.6-4.2,1.6c-1.7,0-3.1-0.5-4.1-1.4c-1.1-1.1-1.7-2.8-1.7-5.1v-9.5h1.4v9.1     c0,2,0.4,3.4,1.1,4.3c0.7,0.9,1.8,1.3,3.2,1.3s2.5-0.4,3.2-1.2c0.8-0.9,1.1-2.3,1.1-4.3v-9.2h1.4v9.5L166.7,606.3L166.7,606.3z" />
			<path
   id="path21"
   d="M180.2,612.8h-1.4l-1.7-5h-6.7l-1.7,5h-1.4l5.8-15.9h1.6L180.2,612.8z M176.6,606.5l-2.9-8.3l-2.9,8.3H176.6z" />
			<circle
   id="circle23"
   r="1.4"
   cy="611.3"
   cx="106.2" />
			<circle
   id="circle25"
   r="1.4"
   cy="611.3"
   cx="153" />
			<path
   id="path27"
   d="M135.7,612.7l-4.4-6.9c0.5-0.1,0.8-0.2,1.3-0.5c2.1-0.9,2.4-3.4,2.4-4.4c0-1.5-0.4-2.6-1.3-3.3c-0.8-0.6-2-0.9-3.7-0.9     h-5.8v16.1h1.4V606h4.1l4.4,6.8L135.7,612.7z M125.5,598h4.5c1.3,0,2.3,0.3,2.8,0.9c0.5,0.5,0.7,1.2,0.7,2.1c0,1-0.3,2.3-1,2.9     c-0.6,0.6-1.5,0.8-2.6,0.8h-4.4C125.5,604.7,125.5,598,125.5,598z" />
		</g>
		<g
   id="g39">
			<g
   id="g37">
				<path
   id="path31"
   d="M419.1,164.3c-100.2,65.6-233.5,38.4-233.5,38.4"
   class="arrow" />
				<g
   id="g35">
					<polygon
   id="polygon33"
   points="422.1,162.3 416.8,163.3 418.9,164.3 419,166.7    " />
				</g>
			</g>
		</g>
		<g
   id="g49">
			<g
   id="g47">
				<path
   id="path41"
   d="M387,249.9c-68.3,49.9-171.4,22.9-171.4,22.9"
   class="arrow" />
				<g
   id="g45">
					<polygon
   id="polygon43"
   points="389.8,247.8 384.6,249.1 386.8,250.1 387,252.4    " />
				</g>
			</g>
		</g>
		<text
   id="text51"
   class="font-size-14"
   transform="matrix(1 0 0 1 39.1176 243.5837)">1948 рік: українців вивезли з </text>


		<text
   id="text53"
   class="font-size-14"
   transform="matrix(1 0 0 1 39.1176 258.5837)">прикордонної зони вглиб </text>


		<text
   id="text55"
   class="font-size-14"
   transform="matrix(1 0 0 1 39.1176 273.5837)">Дрогобиччини і Львівщини.</text>


		<text
   id="text57"
   class="font-size-14"
   transform="matrix(1 0 0 1 39.1176 144.8098)">Мешканців Дрогобицької </text>


		<text
   id="text59"
   class="font-size-14"
   transform="matrix(1 0 0 1 39.1176 159.8098)">області вивезли у колгоспи </text>


		<text
   id="text61"
   class="font-size-14"
   transform="matrix(1 0 0 1 39.1176 174.8098)">Миколаївської, Одеської, </text>


		<text
   id="text63"
   class="font-size-14"
   transform="matrix(1 0 0 1 39.1176 189.8098)">Сталінської (Донецької) та </text>


		<text
   id="text65"
   class="font-size-14"
   transform="matrix(1 0 0 1 39.1176 204.8098)">Херсонської областей.</text>



		<text
   id="text75"
   class="fill-white bold-text font-size-14"
   transform="matrix(1 0 0 1 745.3384 206.2319)">700 тис. </text>


		<text
   id="text77"
   class="fill-white font-size-14"
   transform="matrix(1 0 0 1 697.1383 220.2319)">українців депортували </text>


		<text
   id="text79"
   class="fill-white font-size-14"
   transform="matrix(1 0 0 1 722.5383 234.2319)">із їхніх домівок  </text>


		<text
   id="text81"
   class="fill-white font-size-14"
   transform="matrix(1 0 0 1 712.4385 248.2319)">в Польщі, 1947 рік </text>


		<text
   id="text83"
   class="fill-white bold-text font-size-14"
   transform="matrix(1 0 0 1 446.0678 423.701)">482 тис.</text>


		<text
   id="text85"
   class="fill-white font-size-14"
   transform="matrix(1 0 0 1 443.1678 437.701)">українців </text>


		<text
   id="text87"
   class="fill-white font-size-14"
   transform="matrix(1 0 0 1 398.5678 451.701)">депортували з Польщі </text>


		<text
   id="text89"
   class="fill-white font-size-14"
   transform="matrix(1 0 0 1 443.8678 465.701)">до СРСР, </text>


		<text
   id="text91"
   class="fill-white font-size-14"
   transform="matrix(1 0 0 1 410.0678 479.701)">11.1944–06.1946 рр.</text>


		<text
   id="text93"
   class="fill-white bold-text font-size-14"
   transform="matrix(1 0 0 1 396.5084 240.9108)">9 тис. </text>


		<text
   id="text95"
   class="font-size-21"
   transform="matrix(1 0 0 1 39.1177 83.503)">1944–1951 рр. </text>


		<text
   id="text97"
   class="fill-white bold-text font-size-14"
   transform="matrix(1 0 0 1 867.4225 475.1882)">137-150 тис.</text>


		<text
   id="text99"
   class="fill-white font-size-14"
   transform="matrix(1 0 0 1 834.0222 491.1882)">українців депортувала </text>


		<text
   id="text101"
   class="fill-white font-size-14"
   transform="matrix(1 0 0 1 832.4225 507.1882)">комуністична польська </text>


		<text
   id="text103"
   class="fill-white font-size-14"
   transform="matrix(1 0 0 1 825.5222 523.1882)">влада з південно-східних </text>


		<text
   id="text105"
   class="fill-white font-size-14"
   transform="matrix(1 0 0 1 827.6223 539.1882)">воєводств углиб Польщі</text>


		
		<text
   id="text109"
   class="fill-white bold-text font-size-14"
   transform="matrix(1 0 0 1 450.6458 172.7416)">33 тис. </text>


	</g>
</svg>