<?xml version="1.0" encoding="UTF-8" standalone="no"?>
<svg
   xmlns:dc="http://purl.org/dc/elements/1.1/"
   xmlns:cc="http://creativecommons.org/ns#"
   xmlns:rdf="http://www.w3.org/1999/02/22-rdf-syntax-ns#"
   xmlns:svg="http://www.w3.org/2000/svg"
   xmlns="http://www.w3.org/2000/svg"
   xmlns:sodipodi="http://sodipodi.sourceforge.net/DTD/sodipodi-0.dtd"
   xmlns:inkscape="http://www.inkscape.org/namespaces/inkscape"
   version="1.1"
   id="Layer_1"
   x="0px"
   y="0px"
   viewBox="0 0 1045.9 631.9"
   style="enable-background:new 0 0 1045.9 631.9;"
   xml:space="preserve"
   sodipodi:docname="05_new.svg"
   inkscape:version="0.92.4 (unknown)"><metadata
   id="metadata61"><rdf:RDF><cc:Work
       rdf:about=""><dc:format>image/svg+xml</dc:format><dc:type
         rdf:resource="http://purl.org/dc/dcmitype/StillImage" /></cc:Work></rdf:RDF></metadata><defs
   id="defs59" /><sodipodi:namedview
   pagecolor="#ffffff"
   bordercolor="#666666"
   borderopacity="1"
   objecttolerance="10"
   gridtolerance="10"
   guidetolerance="10"
   inkscape:pageopacity="0"
   inkscape:pageshadow="2"
   inkscape:window-width="1859"
   inkscape:window-height="1056"
   id="namedview57"
   showgrid="false"
   inkscape:zoom="0.79235981"
   inkscape:cx="294.2677"
   inkscape:cy="283.95956"
   inkscape:window-x="61"
   inkscape:window-y="24"
   inkscape:window-maximized="1"
   inkscape:current-layer="circles-5" />

<g
   id="circles-5">

		<circle
   class="pink"
   cx="329.3"
   cy="446"
   r="173.5"
   id="circle_5_2" /><circle
   class="pink"
   cx="762.5"
   cy="337.9"
   r="263.4"
   id="circle_5_1" />

	


	<circle
   class="pink"
   cx="483.4"
   cy="142.8"
   r="68.5"
   id="circle_5_3" />


	<circle
   class="pink"
   cx="430.24225"
   cy="257.33707"
   id="circle_5_4"
   r="35.299999"  />
</g>

<g
   id="content-5">

	<text
   transform="matrix(1 0 0 1 39.1177 55.7267)"
   class="bold-text font-size-36"
   id="text8">Смерті та масові переселення</text>

	<text
   transform="matrix(1 0 0 1 39.1177 83.503)"
   class="font-size-21"
   id="text38">1944–1951 рр. </text>



	<g
   id="g11">
		<path
   class="arrow"
   d="M412,165.9c-93.4,67.1-226.2,21.3-226.2,21.3"
   id="path40" />
		<polygon
   points="414.9,163.8 409.6,165 411.8,166 412,168.4"
   id="polygon42" />
	</g>

	<g
   id="g15">
		<path
   class="arrow"
   d="M388.4,248.4c-86.8-22.8-169.6,9.3-169.6,9.3"
   id="path50" />
		<polygon
   points="391.8,249.4 387.5,246.1 388.1,248.4 386.5,250.1"
   id="polygon52" />
	</g>


	<text
   transform="matrix(1 0 0 1 41.0991 227.5038)"
   id="text20">
		<tspan
   x="0"
   y="0"
   class="font-size-14"
   id="tspan62">1948 рік: українців вивезли з </tspan>
		<tspan
   x="0"
   y="15"
   class="font-size-14"
   id="tspan64">прикордонної зони вглиб </tspan>
		<tspan
   x="0"
   y="30"
   class="font-size-14"
   id="tspan66">Дрогобиччини і Львівщини.</tspan>
	</text>



	<text
   transform="matrix(1 0 0 1 41.0991 128.73)"
   id="text82">
		<tspan
   x="0"
   y="0"
   class="font-size-14"
   id="tspan72">Мешканців Дрогобицької </tspan>
		<tspan
   x="0"
   y="15"
   class="font-size-14"
   id="tspan74">області вивезли у колгоспи </tspan>
		<tspan
   x="0"
   y="30"
   class="font-size-14"
   id="tspan76">Миколаївської, Одеської, </tspan>
		<tspan
   x="0"
   y="45"
   class="font-size-14"
   id="tspan78">Сталінської (Донецької) та </tspan>
		<tspan
   x="0"
   y="60"
   class="font-size-14"
   id="tspan80">Херсонської областей.</tspan>
	</text>



	<text
   transform="matrix(1 0 0 1 734.5175 316.8127)"
   id="text102">
		<tspan
   x="0"
   y="0"
   class="fill-white bold-text font-size-14"
   id="tspan92">482 тис.</tspan>
		<tspan
   x="-2.9"
   y="14"
   class="fill-white font-size-14"
   id="tspan94">українців </tspan>
		<tspan
   x="-47.5"
   y="28"
   class="fill-white font-size-14"
   id="tspan96">депортували з Польщі </tspan>
		<tspan
   x="-2.2"
   y="42"
   class="fill-white font-size-14"
   id="tspan98">до СРСР, </tspan>
		<tspan
   x="-36"
   y="56"
   class="fill-white font-size-14"
   id="tspan100">11.1944–06.1946 рр.</tspan>
	</text>


	<text
   transform="matrix(1 0 0 1 413.809 258.5332)"
   class="fill-white bold-text font-size-14"
   id="text106">9 тис. </text>


	<text
   transform="matrix(1 0 0 1 288.8082 410.8531)"
   id="text120">
		<tspan
   x="-15"
   y="-16"
   class="fill-white bold-text font-size-14"
   id="tspan110">Близько 150 тис.</tspan>
		<tspan
   x="-33.4"
   y="0"
   class="fill-white font-size-14"
   id="tspan112">У квітні-липні 1947 року </tspan>
	<tspan
   x="-35"
   y="16"
   class="fill-white font-size-14"
   id="tspan114">в рамках операції «Вісла» </tspan>
		<tspan
   x="-35"
   y="32"
   class="fill-white font-size-14"
   id="tspan114">українців депортувала</tspan>
	<tspan
   x="-35"
   y="48"
   class="fill-white font-size-14"
   id="tspan114">комуністична польська </tspan>
		<tspan
   x="-41.9"
   y="64"
   class="fill-white font-size-14"
   id="tspan116">влада з південно-східних </tspan>
		<tspan
   x="-39.8"
   y="80"
   class="fill-white font-size-14"
   id="tspan118">воєводств углиб Польщі</tspan>
	</text>




	<text
   transform="matrix(1 0 0 1 460.2869 149.0022)"
   class="fill-white bold-text font-size-14"
   id="text126">33 тис. </text>


	<g
   id="texty-logo">
				<path
   id="path83"
   d="M125.4,604.7c0,2.2-0.5,4.1-1.5,5.6c-1.2,1.7-2.9,2.6-5.1,2.6c-2,0-3.6-0.7-4.8-2.2c-1.2-1.5-1.8-3.5-1.8-6   c0-2.3,0.5-4.2,1.6-5.7c1.2-1.6,2.8-2.4,4.9-2.4s3.8,0.8,4.9,2.4C124.8,600.3,125.4,602.3,125.4,604.7z M124,604.6   c0-2.1-0.5-3.8-1.4-5s-2.2-1.9-3.9-1.9c-1.7,0-3,0.7-3.9,2.1c-0.9,1.3-1.3,2.9-1.3,4.8c0,2,0.4,3.6,1.2,4.8   c0.9,1.4,2.3,2.1,4.1,2.1c1.8,0,3.1-0.7,4-2.1C123.6,608.2,124,606.6,124,604.6z" />
				<path
   id="path85"
   d="M104.3,606.6v6.1H101v-6.2l-5.2-9.7h3.8l3.1,6.4l3.1-6.4h3.7L104.3,606.6z" />
				<path
   id="path87"
   d="M95.1,599.8h-4.6v13h-3.4v-13h-4.6v-3h12.6V599.8z" />
				<path
   id="path89"
   d="M76.9,604.4l5.4,8.3h-4l-3.4-5.5l-3.4,5.5h-3.8l5.4-8.3l-5-7.6H72l3.1,5.1l3.1-5.1h3.7L76.9,604.4z" />
				<path
   id="path91"
   d="M66.3,599.7H60v3.5h5.6v2.8H60v3.9h6.4v2.9h-9.7v-15.9h9.6V599.7z" />
				<path
   id="path93"
   d="M55.3,599.8h-4.6v13h-3.4v-13h-4.6v-3h12.6C55.3,596.8,55.3,599.8,55.3,599.8z" />
				<path
   id="path95"
   d="M152.6,612.4h-1.1v-2.7c-0.5,1-1.2,1.8-2.1,2.3c-0.9,0.5-1.9,0.8-3.2,0.8c-2.1,0-3.6-0.8-4.7-2.4c-1-1.5-1.5-3.4-1.5-5.9   s0.6-4.4,1.7-5.9c1.2-1.5,2.8-2.2,4.8-2.2c1.6,0,2.9,0.4,3.9,1.2c1.1,0.8,1.7,2,2,3.7H151c-0.2-1.1-0.8-2-1.6-2.7   c-0.8-0.6-1.8-1-2.9-1c-1.8,0-3.1,0.7-4,2s-1.3,3-1.3,5.3c0,1.8,0.5,3.3,1.4,4.5c1,1.3,2.2,1.9,3.8,1.9c1.4,0,2.5-0.5,3.4-1.4   c0.5-0.5,0.8-1.2,1.1-1.9s0.4-1.6,0.4-2.6h-4.8v-1.3h6.1L152.6,612.4L152.6,612.4z" />
				<path
   id="path97"
   d="M170.3,606.3c0,2.2-0.5,3.8-1.5,4.9c-1,1.1-2.4,1.6-4.2,1.6c-1.7,0-3.1-0.5-4.1-1.4c-1.1-1.1-1.7-2.8-1.7-5.1v-9.5h1.4v9.1   c0,2,0.4,3.4,1.1,4.3c0.7,0.9,1.8,1.3,3.2,1.3s2.5-0.4,3.2-1.2c0.8-0.9,1.1-2.3,1.1-4.3v-9.1h1.4v9.4H170.3z" />
				<path
   id="path99"
   d="M183.8,612.8h-1.4l-1.7-5H174l-1.7,5h-1.4l5.8-15.9h1.6L183.8,612.8z M180.2,606.5l-2.9-8.3l-2.9,8.3H180.2z" />
				<circle
   id="circle101"
   r="1.4"
   cy="611.3"
   cx="109.8" />
				<circle
   id="circle103"
   r="1.4"
   cy="611.3"
   cx="156.6" />
				<path
   id="path105"
   d="M139.3,612.7l-4.4-6.9c0.5-0.1,0.8-0.2,1.3-0.5c2.1-0.9,2.4-3.4,2.4-4.4c0-1.5-0.4-2.6-1.3-3.3c-0.8-0.6-2-0.9-3.7-0.9   h-5.8v16.1h1.4V606h4.1l4.4,6.8L139.3,612.7z M129.1,598h4.5c1.3,0,2.3,0.3,2.8,0.9c0.5,0.5,0.7,1.2,0.7,2.1c0,1-0.3,2.3-1,2.9   c-0.6,0.6-1.5,0.8-2.6,0.8h-4.4V598z" />
		</g>
</g>
</svg>
