<svg
   xmlns="http://www.w3.org/2000/svg"
   version="1.1"
   id="Layer_1"
   x="0px"
   y="0px"
   viewBox="0 0 1045.9 631.9"
   style="enable-background:new 0 0 1045.9 631.9;"
   xml:space="preserve">
<g
   id="circles-5">


<circle
   class="pink"
   cx="835.5"
   cy="207.7"
   r="198.8"   
   id="circle_5_1"/>

<circle
   class="pink"
   cx="598"
   cy="474.5"
   r="150.5"
   id="circle_5_2"/>

<circle
   class="pink"
   cx="494.9"
   cy="205.7"
   r="130.9"  
   id="circle_5_3"/>

<circle
   class="pink"
   cx="296.6"
   cy="209"
   r="51.7"  
   id="circle_5_4" />


<circle
   class="pink"
   id="circle_5_5"
   cx="418.71249"
   cy="382.29849"
   r="26.5"/>

<circle
   id="circle_5_6"
   class="brown"
   cx="403.52264"
   cy="464.86502"
   r="15.5" />
</g>

<g id="content-5">

<text
   transform="matrix(1 0 0 1 39.1177 55.7267)"
   class="bold-text font-size-36"
   id="text10">Смерті та масові переселення</text>

<g
   id="g36">
	<path
   d="M121.8,604.7c0,2.2-0.5,4.1-1.5,5.6c-1.2,1.7-2.9,2.6-5.1,2.6c-2,0-3.6-0.7-4.8-2.2c-1.2-1.5-1.8-3.5-1.8-6   c0-2.3,0.5-4.2,1.6-5.7c1.2-1.6,2.8-2.4,4.9-2.4s3.8,0.8,4.9,2.4C121.2,600.3,121.8,602.3,121.8,604.7z M120.4,604.6   c0-2.1-0.5-3.8-1.4-5s-2.2-1.9-3.9-1.9c-1.7,0-3,0.7-3.9,2.1c-0.9,1.3-1.3,2.9-1.3,4.8c0,2,0.4,3.6,1.2,4.8   c0.9,1.4,2.3,2.1,4.1,2.1c1.8,0,3.1-0.7,4-2.1C120,608.1,120.4,606.6,120.4,604.6z"
   id="path12" />
	<path
   d="M100.7,606.6v6.1h-3.3v-6.2l-5.2-9.7H96l3.1,6.4l3.1-6.4h3.7L100.7,606.6z"
   id="path14" />
	<path
   d="M91.5,599.8h-4.6v13h-3.4v-13h-4.6v-3h12.6V599.8z"
   id="path16" />
	<path
   d="M73.3,604.4l5.4,8.3h-4l-3.4-5.5l-3.4,5.6h-3.8l5.4-8.3l-5-7.6h3.9l3.1,5.1l3.1-5.1h3.7L73.3,604.4z"
   id="path18" />
	<path
   d="M62.7,599.7h-6.3v3.5H62v2.8h-5.6v3.9h6.4v2.9h-9.7v-16h9.6C62.7,596.8,62.7,599.7,62.7,599.7z"
   id="path20" />
	<path
   d="M51.7,599.8h-4.6v13h-3.4v-13h-4.6v-3h12.6C51.7,596.8,51.7,599.8,51.7,599.8z"
   id="path22" />
	<path
   d="M149,612.4h-1.1v-2.7c-0.5,1-1.2,1.8-2.1,2.3c-0.9,0.5-1.9,0.8-3.2,0.8c-2.1,0-3.6-0.8-4.7-2.4c-1-1.5-1.5-3.4-1.5-5.9   s0.6-4.4,1.7-5.9c1.2-1.5,2.8-2.2,4.8-2.2c1.6,0,2.9,0.4,3.9,1.2c1.1,0.8,1.7,2,2,3.7h-1.4c-0.2-1.1-0.8-2-1.6-2.7   c-0.8-0.6-1.8-1-2.9-1c-1.8,0-3.1,0.7-4,2s-1.3,3-1.3,5.3c0,1.8,0.5,3.3,1.4,4.5c1,1.3,2.2,1.9,3.8,1.9c1.4,0,2.5-0.5,3.4-1.4   c0.5-0.5,0.8-1.2,1.1-1.9s0.4-1.6,0.4-2.6h-4.8v-1.3h6.1L149,612.4L149,612.4z"
   id="path24" />
	<path
   d="M166.7,606.3c0,2.2-0.5,3.8-1.5,4.9c-1,1.1-2.4,1.6-4.2,1.6c-1.7,0-3.1-0.5-4.1-1.4c-1.1-1.1-1.7-2.8-1.7-5.1v-9.5h1.4v9.1   c0,2,0.4,3.4,1.1,4.3c0.7,0.9,1.8,1.3,3.2,1.3s2.5-0.4,3.2-1.2c0.8-0.9,1.1-2.3,1.1-4.3v-9.2h1.4v9.5L166.7,606.3L166.7,606.3z"
   id="path26" />
	<path
   d="M180.2,612.8h-1.4l-1.7-5h-6.7l-1.7,5h-1.4l5.8-15.9h1.6L180.2,612.8z M176.6,606.5l-2.9-8.3l-2.9,8.3H176.6z"
   id="path28" />
	<circle
   cx="106.2"
   cy="611.3"
   r="1.4"
   id="circle30" />
	<circle
   cx="153"
   cy="611.3"
   r="1.4"
   id="circle32" />
	<path
   d="M135.7,612.7l-4.4-6.9c0.5-0.1,0.8-0.2,1.3-0.5c2.1-0.9,2.4-3.4,2.4-4.4c0-1.5-0.4-2.6-1.3-3.3c-0.8-0.6-2-0.9-3.7-0.9   h-5.8v16.1h1.4V606h4.1l4.4,6.8L135.7,612.7z M125.5,598h4.5c1.3,0,2.3,0.3,2.8,0.9c0.5,0.5,0.7,1.2,0.7,2.1c0,1-0.3,2.3-1,2.9   c-0.6,0.6-1.5,0.8-2.6,0.8h-4.4C125.5,604.7,125.5,598,125.5,598z"
   id="path34" />
</g>

<text
   transform="matrix(1 0 0 1 39.1177 83.503)"
   class="font-size-21"
   id="text40">1944–1951 рр. </text>

<g
   id="g50">
	<g
   id="g48">
		<path
   class="arrow"
   d="M387.6,373.3c-86.8-22.8-169.6,9.3-169.6,9.3"
   id="path42" />
		<g
   id="g46">
			<polygon
   points="391,374.3 386.7,371 387.3,373.3 385.7,375    "
   id="polygon44" />
		</g>
	</g>
</g>

<text
   transform="matrix(1 0 0 1 41.0991 352.7379)"
   class=" font-size-14"
   id="text54">1948 рік: українців вивезли з </text>

<text
   transform="matrix(1 0 0 1 41.0991 367.7379)"
   class=" font-size-14"
   id="text56">прикордонної зони вглиб </text>

<text
   transform="matrix(1 0 0 1 41.0991 382.7379)"
   class=" font-size-14"
   id="text58">Дрогобиччини і Львівщини.</text>

<text
   transform="matrix(1 0 0 1 39.5106 449.9333)"
   id="text74"><tspan
     x="0"
     y="0"
     class=" font-size-14"
     id="tspan62">Квітень 1947 року. Українців </tspan><tspan
     x="0"
     y="16.8"
     class="font-size-14"
     id="tspan64">було ув’язнено в концтаборі у </tspan><tspan
     x="0"
     y="33.6"
     class="font-size-14"
     id="tspan66">Явожно. За час функціонування </tspan><tspan
     x="0"
     y="50.4"
     class="font-size-14"
     id="tspan68">табору (травень 1947 – січень </tspan><tspan
     x="0"
     y="67.2"
     class="font-size-14"
     id="tspan70">1949 року) загинуло понад 150 </tspan><tspan
     x="0"
     y="84"
     class="font-size-14"
     id="tspan72">в’язнів.</tspan></text>

<text
   transform="matrix(1 0 0 1 41.0991 239.0279)"
   class="font-size-14"
   id="text76">Мешканців Дрогобицької </text>

<text
   transform="matrix(1 0 0 1 41.0991 254.0279)"
   class="font-size-14"
   id="text78">області вивезли у колгоспи </text>

<text
   transform="matrix(1 0 0 1 41.0991 269.0279)"
   class="font-size-14"
   id="text80">Миколаївської, Одеської, </text>

<text
   transform="matrix(1 0 0 1 41.0991 284.0279)"
   class="font-size-14"
   id="text82">Сталінської (Донецької) та </text>

<text
   transform="matrix(1 0 0 1 41.0991 299.0279)"
   class="font-size-14"
   id="text84">Херсонської областей.</text>


<text
   transform="matrix(1 0 0 1 805.4608 182.0042)"
   class="fill-white bold-text font-size-16"
   id="text94">482 тис.</text>

<text
   transform="matrix(1 0 0 1 806.1682 196.0042)"
   class="fill-white font-size-14"
   id="text96">українців </text>

<text
   transform="matrix(1 0 0 1 761.5681 210.0042)"
   class="fill-white font-size-14"
   id="text98">депортували з Польщі </text>

<text
   transform="matrix(1 0 0 1 806.8682 224.0042)"
   class="fill-white font-size-14"
   id="text100">до СРСР, </text>

<text
   transform="matrix(1 0 0 1 773.0681 238.0042)"
   class="fill-white font-size-14"
   id="text102">11.1944–06.1946 рр.</text>

<text
   transform="matrix(1 0 0 1 397.5537 387.2141)"
   class="fill-white bold-text font-size-16"
   id="text106">9 тис. </text>

<text
   transform="matrix(1 0 0 1 430.2461 167.2786)"
   class=""
   id="text112"><tspan
     x="0"
     y="0"
     class="fill-white bold-text font-size-14"
     id="tspan108"> близько </tspan><tspan
     x="61.6"
     y="0"
     class="fill-white bold-text font-size-16"
     id="tspan110">150 тис.</tspan></text>

<text
   transform="matrix(1 0 0 1 409.4096 183.2787)"
   id="text118"><tspan
     x="0"
     y="0"
     class="fill-white font-size-14"
     id="tspan114"> в рамках операції «Вісла» </tspan><tspan
     x="11.3"
     y="16.8"
     class="fill-white font-size-14"
     id="tspan116">українців депортувала </tspan></text>

<text
   transform="matrix(1 0 0 1 418.3203 216.2787)"
   class="fill-white font-size-14"
   id="text120">комуністична польська </text>

<text
   transform="matrix(1 0 0 1 412.4203 232.2787)"
   class="fill-white font-size-14"
   id="text122">влада з південно-східних </text>

<text
   transform="matrix(1 0 0 1 414.5203 248.2787)"
   class="fill-white font-size-14"
   id="text124">воєводств углиб Польщі</text>


<text
   transform="matrix(1 0 0 1 275.4571 215.6405)"
   class="fill-white bold-text font-size-16"
   id="text130">33 тис. </text>


<text
   transform="matrix(1 0 0 1 379.192 447.129)"
   class="bold-text font-size-16"
   id="text134">3.9 тис. </text>

<text
   transform="matrix(1 0 0 1 570.9127 448.2312)"
   id="text148"><tspan
     x="0"
     y="0"
     class="fill-white bold-text font-size-14"
     id="tspan138">200 тис.</tspan><tspan
     x="-44.7"
     y="16.8"
     class="fill-white font-size-14"
     id="tspan140"> кримських татар було </tspan><tspan
     x="-51.9"
     y="33.6"
     class="fill-white font-size-14"
     id="tspan142">депортовано з Криму до </tspan><tspan
     x="-26.5"
     y="50.4"
     class="fill-white font-size-14"
     id="tspan144">Центральної Азії </tspan><tspan
     x="-46.8"
     y="67.2"
     class="fill-white font-size-14"
     id="tspan146">18-20 травня 1944 року</tspan></text>

<g
   id="g152">
	<g
   id="g150">
	</g>
</g>
<g
   id="g162">
	<g
   id="g160">
		<path
   class="arrow"
   d="M84.8,533.1c0,0,189.8,85.4,311.7-48.7"
   id="path154" />
		<g
   id="g158">
			<polygon
   points="398.8,481.8 397,486.8 396.3,484.6 394,484.1    "
   id="polygon156" />
		</g>
	</g>
</g>
<g
   id="g172">
	<g
   id="g170">
		<path
   class="arrow"
   d="M185.9,298c0,0,75.2,21.4,109.9-29.2"
   id="path164" />
		<g
   id="g168">
			<polygon
   points="297.7,265.8 296.6,271 295.6,268.9 293.3,268.8    "
   id="polygon166" />
		</g>
	</g>
</g>


</g>

</svg>
