<?xml version="1.0" encoding="utf-8"?>
<!-- Generator: Adobe Illustrator 25.2.3, SVG Export Plug-In . SVG Version: 6.00 Build 0)  -->
<svg version="1.1" id="Layer_1" xmlns="http://www.w3.org/2000/svg" xmlns:xlink="http://www.w3.org/1999/xlink" x="0px" y="0px"
	 viewBox="0 0 158 88.9" style="enable-background:new 0 0 158 88.9;" xml:space="preserve">
<style type="text/css">
	.st0{clip-path:url(#SVGID_2_);fill:none;stroke:#000000;stroke-width:0.5;}
	.st1{clip-path:url(#SVGID_4_);fill:none;stroke:#000000;stroke-width:0.5;}
	.st2{clip-path:url(#SVGID_6_);fill:none;stroke:#000000;stroke-width:0.5;}
	.st3{enable-background:new    ;}
	.st4{clip-path:url(#SVGID_8_);fill:url(#SVGID_9_);}
	.st5{clip-path:url(#SVGID_11_);}
</style>
<g>
	<g>
		<defs>
			<rect id="SVGID_1_" x="-0.8" y="5.4" width="157.9" height="71.5"/>
		</defs>
		<clipPath id="SVGID_2_">
			<use xlink:href="#SVGID_1_"  style="overflow:visible;"/>
		</clipPath>
		<circle class="st0" cx="35.7" cy="48.4" r="5"/>
	</g>
	<g>
		<defs>
			<rect id="SVGID_3_" x="-0.8" y="5.4" width="157.9" height="71.5"/>
		</defs>
		<clipPath id="SVGID_4_">
			<use xlink:href="#SVGID_3_"  style="overflow:visible;"/>
		</clipPath>
		<circle class="st1" cx="35.7" cy="45.4" r="8"/>
	</g>
	<g>
		<defs>
			<rect id="SVGID_5_" x="-0.8" y="5.4" width="157.9" height="71.5"/>
		</defs>
		<clipPath id="SVGID_6_">
			<use xlink:href="#SVGID_5_"  style="overflow:visible;"/>
		</clipPath>
		<circle class="st2" cx="35.7" cy="41.9" r="11.5"/>
	</g>
</g>
<g class="st3">
	<path d="M33.9,60c-0.6,0-1.1-0.2-1.4-0.6l0.3-0.3c0.3,0.4,0.6,0.5,1.1,0.5c0.3,0,0.5-0.1,0.7-0.2c0.2-0.2,0.3-0.4,0.3-0.6
		c0-0.3-0.1-0.5-0.3-0.6c-0.2-0.2-0.4-0.2-0.7-0.2c-0.4,0-0.7,0.1-0.9,0.4l-0.4-0.1v-2.2h2.4v0.4h-2v1.4c0.2-0.2,0.6-0.4,0.9-0.4
		c0.4,0,0.7,0.1,0.9,0.3c0.2,0.2,0.4,0.5,0.4,0.9c0,0.4-0.1,0.7-0.4,1C34.7,59.9,34.3,60,33.9,60z"/>
	<path d="M37.5,60c-0.3,0-0.5-0.1-0.7-0.2c-0.2-0.1-0.4-0.3-0.5-0.5c-0.1-0.2-0.2-0.4-0.3-0.7S36,58.2,36,57.9s0-0.5,0.1-0.7
		c0.1-0.2,0.1-0.5,0.3-0.7c0.1-0.2,0.3-0.4,0.5-0.5c0.2-0.1,0.4-0.2,0.7-0.2c0.3,0,0.5,0.1,0.7,0.2c0.2,0.1,0.4,0.3,0.5,0.5
		c0.1,0.2,0.2,0.4,0.3,0.7c0.1,0.2,0.1,0.5,0.1,0.7s0,0.5-0.1,0.7c-0.1,0.2-0.1,0.5-0.3,0.7c-0.1,0.2-0.3,0.4-0.5,0.5
		C38,59.9,37.8,60,37.5,60z M36.9,59.3c0.2,0.2,0.4,0.2,0.6,0.2c0.2,0,0.4-0.1,0.6-0.2c0.2-0.2,0.3-0.4,0.3-0.6
		c0.1-0.2,0.1-0.5,0.1-0.8c0-0.3,0-0.5-0.1-0.8s-0.2-0.4-0.3-0.6c-0.2-0.2-0.4-0.2-0.6-0.2c-0.2,0-0.4,0.1-0.6,0.2
		c-0.2,0.2-0.3,0.4-0.3,0.6c-0.1,0.2-0.1,0.5-0.1,0.8c0,0.3,0,0.5,0.1,0.8C36.6,58.9,36.7,59.1,36.9,59.3z"/>
</g>
<g class="st3">
	<path d="M28.3,28.9h-0.5v-3.3l-0.6,0.7L26.9,26l1-1h0.4V28.9z"/>
	<path d="M30.4,29c-0.3,0-0.6-0.1-0.9-0.2s-0.4-0.3-0.6-0.5l0.3-0.3c0.1,0.2,0.3,0.3,0.5,0.4c0.2,0.1,0.4,0.1,0.6,0.1
		c0.3,0,0.5-0.1,0.7-0.2c0.2-0.1,0.2-0.3,0.2-0.5c0-0.2-0.1-0.4-0.3-0.5c-0.2-0.1-0.4-0.2-0.7-0.2c-0.2,0-0.4,0-0.4,0v-0.5
		c0,0,0.2,0,0.4,0c0.3,0,0.5-0.1,0.7-0.2c0.2-0.1,0.3-0.3,0.3-0.5c0-0.2-0.1-0.4-0.3-0.5c-0.2-0.1-0.4-0.2-0.6-0.2
		c-0.4,0-0.8,0.2-1.1,0.5L29,25.5c0.3-0.4,0.8-0.6,1.4-0.6c0.4,0,0.7,0.1,1,0.3c0.3,0.2,0.4,0.5,0.4,0.8c0,0.3-0.1,0.5-0.3,0.6
		c-0.2,0.2-0.4,0.3-0.6,0.3c0.2,0,0.4,0.1,0.6,0.3c0.2,0.2,0.3,0.4,0.3,0.7c0,0.3-0.1,0.6-0.4,0.8S30.8,29,30.4,29z"/>
	<path d="M35.5,29c-0.3,0-0.5-0.1-0.7-0.2c-0.2-0.1-0.4-0.3-0.5-0.5c-0.1-0.2-0.2-0.4-0.3-0.7C34,27.4,34,27.2,34,26.9
		s0-0.5,0.1-0.7c0.1-0.2,0.1-0.5,0.3-0.7c0.1-0.2,0.3-0.4,0.5-0.5c0.2-0.1,0.4-0.2,0.7-0.2c0.3,0,0.5,0.1,0.7,0.2
		c0.2,0.1,0.4,0.3,0.5,0.5c0.1,0.2,0.2,0.4,0.3,0.7c0.1,0.2,0.1,0.5,0.1,0.7s0,0.5-0.1,0.7c-0.1,0.2-0.1,0.5-0.3,0.7
		c-0.1,0.2-0.3,0.4-0.5,0.5C36,28.9,35.8,29,35.5,29z M34.9,28.3c0.2,0.2,0.4,0.2,0.6,0.2c0.2,0,0.4-0.1,0.6-0.2
		c0.2-0.2,0.3-0.4,0.3-0.6c0.1-0.2,0.1-0.5,0.1-0.8s0-0.5-0.1-0.8c-0.1-0.2-0.2-0.4-0.3-0.6c-0.2-0.2-0.4-0.2-0.6-0.2
		c-0.2,0-0.4,0.1-0.6,0.2c-0.2,0.2-0.3,0.4-0.3,0.6c-0.1,0.2-0.1,0.5-0.1,0.8s0,0.5,0.1,0.8C34.7,27.9,34.8,28.1,34.9,28.3z"/>
	<path d="M39.2,29c-0.3,0-0.5-0.1-0.7-0.2c-0.2-0.1-0.4-0.3-0.5-0.5c-0.1-0.2-0.2-0.4-0.3-0.7c-0.1-0.2-0.1-0.5-0.1-0.7
		s0-0.5,0.1-0.7c0.1-0.2,0.1-0.5,0.3-0.7c0.1-0.2,0.3-0.4,0.5-0.5c0.2-0.1,0.4-0.2,0.7-0.2c0.3,0,0.5,0.1,0.7,0.2
		c0.2,0.1,0.4,0.3,0.5,0.5c0.1,0.2,0.2,0.4,0.3,0.7c0.1,0.2,0.1,0.5,0.1,0.7s0,0.5-0.1,0.7c-0.1,0.2-0.1,0.5-0.3,0.7
		c-0.1,0.2-0.3,0.4-0.5,0.5C39.7,28.9,39.5,29,39.2,29z M38.6,28.3c0.2,0.2,0.4,0.2,0.6,0.2c0.2,0,0.4-0.1,0.6-0.2
		c0.2-0.2,0.3-0.4,0.3-0.6c0.1-0.2,0.1-0.5,0.1-0.8s0-0.5-0.1-0.8c-0.1-0.2-0.2-0.4-0.3-0.6c-0.2-0.2-0.4-0.2-0.6-0.2
		c-0.2,0-0.4,0.1-0.6,0.2c-0.2,0.2-0.3,0.4-0.3,0.6c-0.1,0.2-0.1,0.5-0.1,0.8s0,0.5,0.1,0.8C38.3,27.9,38.4,28.1,38.6,28.3z"/>
	<path d="M42.9,29c-0.3,0-0.5-0.1-0.7-0.2c-0.2-0.1-0.4-0.3-0.5-0.5c-0.1-0.2-0.2-0.4-0.3-0.7c-0.1-0.2-0.1-0.5-0.1-0.7
		s0-0.5,0.1-0.7c0.1-0.2,0.1-0.5,0.3-0.7c0.1-0.2,0.3-0.4,0.5-0.5c0.2-0.1,0.4-0.2,0.7-0.2c0.3,0,0.5,0.1,0.7,0.2
		c0.2,0.1,0.4,0.3,0.5,0.5c0.1,0.2,0.2,0.4,0.3,0.7c0.1,0.2,0.1,0.5,0.1,0.7s0,0.5-0.1,0.7c-0.1,0.2-0.1,0.5-0.3,0.7
		c-0.1,0.2-0.3,0.4-0.5,0.5C43.4,28.9,43.1,29,42.9,29z M42.3,28.3c0.2,0.2,0.4,0.2,0.6,0.2c0.2,0,0.4-0.1,0.6-0.2
		c0.2-0.2,0.3-0.4,0.3-0.6c0.1-0.2,0.1-0.5,0.1-0.8s0-0.5-0.1-0.8c-0.1-0.2-0.2-0.4-0.3-0.6c-0.2-0.2-0.4-0.2-0.6-0.2
		c-0.2,0-0.4,0.1-0.6,0.2c-0.2,0.2-0.3,0.4-0.3,0.6c-0.1,0.2-0.1,0.5-0.1,0.8s0,0.5,0.1,0.8C42,27.9,42.1,28.1,42.3,28.3z"/>
</g>
<g class="st3">
	<path d="M13.1,17.2h-0.6L11,15.4l-0.4,0.5v1.3h-0.5v-4h0.5v2.1l1.8-2.1H13l-1.7,1.9L13.1,17.2z"/>
	<path d="M13.9,13.9c-0.1,0-0.1,0-0.2-0.1c-0.1-0.1-0.1-0.1-0.1-0.2s0-0.2,0.1-0.2c0.1-0.1,0.1-0.1,0.2-0.1c0.1,0,0.2,0,0.2,0.1
		c0.1,0.1,0.1,0.1,0.1,0.2s0,0.2-0.1,0.2C14.1,13.8,14,13.9,13.9,13.9z M14.1,17.2h-0.4v-2.9h0.4V17.2z"/>
	<path d="M14.7,17.2v-0.4c0.1,0,0.2-0.1,0.3-0.3c0.1-0.2,0.2-0.5,0.2-0.9l0.2-1.4h2v2.9H17v-2.5h-1.2l-0.1,1.1
		c-0.1,0.5-0.2,0.9-0.3,1.1C15.2,17.1,15,17.2,14.7,17.2z"/>
	<path d="M18.4,14.3h0.4v1.1h1.1c0.3,0,0.5,0.1,0.7,0.3c0.2,0.2,0.2,0.4,0.2,0.6s-0.1,0.5-0.2,0.6c-0.2,0.2-0.4,0.3-0.7,0.3h-1.5
		V14.3z M19.8,15.8h-1v1h1c0.2,0,0.3,0,0.4-0.1c0.1-0.1,0.1-0.2,0.1-0.4c0-0.1,0-0.3-0.1-0.4C20.1,15.8,20,15.8,19.8,15.8z"/>
	<path d="M24,17.2h-0.6l-1-1.3l-0.5,0.5v0.8h-0.4v-2.9h0.4v1.5l1.5-1.5H24l-1.3,1.3L24,17.2z"/>
	<path d="M24.8,13.9c-0.1,0-0.1,0-0.2-0.1c-0.1-0.1-0.1-0.1-0.1-0.2s0-0.2,0.1-0.2c0.1-0.1,0.1-0.1,0.2-0.1c0.1,0,0.2,0,0.2,0.1
		c0.1,0.1,0.1,0.1,0.1,0.2s0,0.2-0.1,0.2C25,13.8,24.9,13.9,24.8,13.9z M25,17.2h-0.4v-2.9H25V17.2z"/>
	<path d="M27.2,17.2c-0.4,0-0.8-0.1-1-0.4s-0.4-0.7-0.4-1.1c0-0.4,0.1-0.8,0.4-1.1s0.6-0.4,1-0.4c0.4,0,0.8,0.2,1.1,0.5L28,15
		c-0.2-0.3-0.4-0.4-0.7-0.4c-0.3,0-0.5,0.1-0.7,0.3s-0.3,0.5-0.3,0.8s0.1,0.6,0.3,0.8c0.2,0.2,0.4,0.3,0.7,0.3s0.5-0.1,0.7-0.4
		l0.3,0.3C28,17.1,27.6,17.2,27.2,17.2z"/>
	<path d="M29.9,17.2h-0.5v-2.5h-0.8v-0.4h2.1v0.4h-0.8V17.2z"/>
	<path d="M31.3,14.3h0.4v1.1h1.1c0.3,0,0.5,0.1,0.7,0.3c0.2,0.2,0.2,0.4,0.2,0.6s-0.1,0.5-0.2,0.6c-0.2,0.2-0.4,0.3-0.7,0.3h-1.5
		V14.3z M32.8,15.8h-1v1h1c0.2,0,0.3,0,0.4-0.1c0.1-0.1,0.1-0.2,0.1-0.4c0-0.1,0-0.3-0.1-0.4C33.1,15.8,33,15.8,32.8,15.8z"/>
	<path d="M36.4,17.2H36v-2.9h0.4v1.2h1.5v-1.2h0.4v2.9h-0.4v-1.3h-1.5V17.2z"/>
	<path d="M41.6,17.2h-0.4v-0.3c-0.2,0.3-0.6,0.4-1,0.4c-0.3,0-0.5-0.1-0.7-0.3c-0.2-0.2-0.3-0.4-0.3-0.7c0-0.3,0.1-0.5,0.3-0.7
		c0.2-0.2,0.4-0.2,0.7-0.2c0.4,0,0.7,0.1,1,0.4v-0.5c0-0.2-0.1-0.3-0.2-0.5c-0.1-0.1-0.3-0.2-0.5-0.2c-0.3,0-0.6,0.1-0.9,0.4
		l-0.2-0.3c0.3-0.3,0.7-0.5,1.2-0.5c0.3,0,0.6,0.1,0.8,0.2c0.2,0.2,0.3,0.4,0.3,0.7V17.2z M40.3,16.9c0.4,0,0.6-0.1,0.8-0.4V16
		c-0.2-0.2-0.4-0.4-0.8-0.4c-0.2,0-0.4,0.1-0.5,0.2c-0.1,0.1-0.2,0.3-0.2,0.5c0,0.2,0.1,0.3,0.2,0.5C39.9,16.9,40.1,16.9,40.3,16.9z
		"/>
	<path d="M43.7,17.2c-0.4,0-0.8-0.1-1-0.4s-0.4-0.7-0.4-1.1c0-0.4,0.1-0.8,0.4-1.1s0.6-0.4,1-0.4c0.4,0,0.8,0.2,1.1,0.5L44.5,15
		c-0.2-0.3-0.4-0.4-0.7-0.4c-0.3,0-0.5,0.1-0.7,0.3s-0.3,0.5-0.3,0.8s0.1,0.6,0.3,0.8c0.2,0.2,0.4,0.3,0.7,0.3s0.5-0.1,0.7-0.4
		l0.3,0.3C44.5,17.1,44.2,17.2,43.7,17.2z"/>
	<path d="M46.7,17.2c-0.4,0-0.8-0.1-1.1-0.4c-0.3-0.3-0.4-0.6-0.4-1.1c0-0.4,0.1-0.8,0.4-1.1s0.6-0.4,1-0.4c0.4,0,0.8,0.1,1,0.4
		s0.4,0.7,0.4,1.1v0.1h-2.3c0,0.3,0.1,0.5,0.3,0.7c0.2,0.2,0.4,0.3,0.7,0.3c0.4,0,0.7-0.1,0.9-0.4l0.2,0.3
		C47.6,17.1,47.2,17.2,46.7,17.2z M47.6,15.5c0-0.2-0.1-0.5-0.3-0.7s-0.4-0.3-0.7-0.3c-0.3,0-0.5,0.1-0.7,0.3
		c-0.2,0.2-0.3,0.4-0.3,0.7H47.6z"/>
	<path d="M48.5,17.2v-0.4c0.1,0,0.2-0.1,0.3-0.3c0.1-0.2,0.2-0.5,0.2-0.9l0.2-1.4h2v2.9h-0.4v-2.5h-1.2l-0.1,1.1
		c-0.1,0.5-0.2,0.9-0.3,1.1C49,17.1,48.7,17.2,48.5,17.2z"/>
	<path d="M53.4,17.2c-0.4,0-0.8-0.1-1.1-0.4c-0.3-0.3-0.4-0.6-0.4-1.1c0-0.4,0.1-0.8,0.4-1.1s0.6-0.4,1-0.4c0.4,0,0.8,0.1,1,0.4
		s0.4,0.7,0.4,1.1v0.1h-2.3c0,0.3,0.1,0.5,0.3,0.7c0.2,0.2,0.4,0.3,0.7,0.3c0.4,0,0.7-0.1,0.9-0.4l0.2,0.3
		C54.3,17.1,53.9,17.2,53.4,17.2z M54.3,15.5c0-0.2-0.1-0.5-0.3-0.7s-0.4-0.3-0.7-0.3c-0.3,0-0.5,0.1-0.7,0.3
		c-0.2,0.2-0.3,0.4-0.3,0.7H54.3z"/>
	<path d="M55.9,17.2h-0.4v-2.9h0.4v1.2h1.5v-1.2h0.4v2.9h-0.4v-1.3h-1.5V17.2z"/>
	<path d="M59.3,17.2h-0.4v-2.9h0.4v1.2h1.5v-1.2h0.4v2.9h-0.4v-1.3h-1.5V17.2z"/>
	<path d="M62.6,17.2H62l0.8-1.1c-0.2,0-0.4-0.1-0.5-0.3c-0.1-0.2-0.2-0.4-0.2-0.6c0-0.3,0.1-0.5,0.2-0.6c0.2-0.2,0.4-0.3,0.7-0.3
		h1.5v2.9h-0.5v-1.1h-0.8L62.6,17.2z M63,15.7h1v-1h-1c-0.2,0-0.3,0-0.4,0.1s-0.1,0.2-0.1,0.4c0,0.1,0,0.3,0.1,0.4
		S62.9,15.7,63,15.7z"/>
	<path d="M65.9,14.8c-0.1,0.1-0.1,0.1-0.2,0.1s-0.2,0-0.2-0.1c-0.1-0.1-0.1-0.1-0.1-0.2c0-0.1,0-0.2,0.1-0.2
		c0.1-0.1,0.1-0.1,0.2-0.1s0.2,0,0.2,0.1c0.1,0.1,0.1,0.1,0.1,0.2C66,14.7,65.9,14.7,65.9,14.8z M65.9,17.1
		c-0.1,0.1-0.1,0.1-0.2,0.1s-0.2,0-0.2-0.1c-0.1-0.1-0.1-0.1-0.1-0.2c0-0.1,0-0.2,0.1-0.2c0.1-0.1,0.1-0.1,0.2-0.1s0.2,0,0.2,0.1
		c0.1,0.1,0.1,0.1,0.1,0.2C66,17,65.9,17.1,65.9,17.1z"/>
</g>
<g class="st3">
	<path d="M83.2,17.2h-0.6L81,15.4l-0.4,0.5v1.3h-0.5v-4h0.5v2.1l1.8-2.1H83l-1.7,1.9L83.2,17.2z"/>
	<path d="M83.9,13.9c-0.1,0-0.1,0-0.2-0.1c-0.1-0.1-0.1-0.1-0.1-0.2s0-0.2,0.1-0.2c0.1-0.1,0.1-0.1,0.2-0.1c0.1,0,0.2,0,0.2,0.1
		c0.1,0.1,0.1,0.1,0.1,0.2s0,0.2-0.1,0.2C84.1,13.8,84,13.9,83.9,13.9z M84.2,17.2h-0.5v-2.9h0.5V17.2z"/>
	<path d="M84.7,17.2v-0.4c0.1,0,0.2-0.1,0.3-0.3c0.1-0.2,0.2-0.5,0.2-0.9l0.2-1.4h2v2.9H87v-2.5h-1.2l-0.1,1.1
		c-0.1,0.5-0.2,0.9-0.3,1.1C85.2,17.1,85,17.2,84.7,17.2z"/>
	<path d="M88.4,14.3h0.5v1.1h1.1c0.3,0,0.5,0.1,0.7,0.3c0.2,0.2,0.2,0.4,0.2,0.6s-0.1,0.5-0.2,0.6s-0.4,0.3-0.7,0.3h-1.5V14.3z
		 M89.9,15.8h-1v1h1c0.2,0,0.3,0,0.4-0.1c0.1-0.1,0.1-0.2,0.1-0.4c0-0.1,0-0.3-0.1-0.4C90.2,15.8,90,15.8,89.9,15.8z"/>
	<path d="M94.1,17.2h-0.6l-1-1.3L92,16.3v0.8h-0.5v-2.9H92v1.5l1.5-1.5h0.6l-1.3,1.3L94.1,17.2z"/>
	<path d="M94.8,13.9c-0.1,0-0.1,0-0.2-0.1c-0.1-0.1-0.1-0.1-0.1-0.2s0-0.2,0.1-0.2c0.1-0.1,0.1-0.1,0.2-0.1c0.1,0,0.2,0,0.2,0.1
		c0.1,0.1,0.1,0.1,0.1,0.2s0,0.2-0.1,0.2C95,13.8,94.9,13.9,94.8,13.9z M95.1,17.2h-0.5v-2.9h0.5V17.2z"/>
	<path d="M97.2,17.2c-0.4,0-0.8-0.1-1-0.4c-0.3-0.3-0.4-0.7-0.4-1.1c0-0.4,0.1-0.8,0.4-1.1c0.3-0.3,0.6-0.4,1-0.4
		c0.4,0,0.8,0.2,1.1,0.5L98,15c-0.2-0.3-0.4-0.4-0.7-0.4c-0.3,0-0.5,0.1-0.7,0.3c-0.2,0.2-0.3,0.5-0.3,0.8s0.1,0.6,0.3,0.8
		c0.2,0.2,0.4,0.3,0.7,0.3c0.3,0,0.5-0.1,0.7-0.4l0.3,0.3C98,17.1,97.7,17.2,97.2,17.2z"/>
	<path d="M99.9,17.2h-0.5v-2.5h-0.8v-0.4h2.1v0.4h-0.8V17.2z"/>
	<path d="M101.3,14.3h0.4v1.1h1.1c0.3,0,0.5,0.1,0.7,0.3c0.2,0.2,0.2,0.4,0.2,0.6s-0.1,0.5-0.2,0.6c-0.2,0.2-0.4,0.3-0.7,0.3h-1.5
		V14.3z M102.8,15.8h-1v1h1c0.2,0,0.3,0,0.4-0.1s0.1-0.2,0.1-0.4c0-0.1,0-0.3-0.1-0.4S103,15.8,102.8,15.8z"/>
	<path d="M107,17.2c-0.6,0-1-0.2-1.3-0.5l0.2-0.3c0.3,0.3,0.6,0.4,1.1,0.4c0.3,0,0.5,0,0.6-0.1c0.2-0.1,0.2-0.2,0.2-0.4
		c0-0.3-0.3-0.5-0.9-0.5h-0.6v-0.4h0.6c0.3,0,0.5,0,0.6-0.1c0.2-0.1,0.2-0.2,0.2-0.4c0-0.1-0.1-0.2-0.2-0.3
		c-0.2-0.1-0.4-0.1-0.6-0.1c-0.4,0-0.7,0.1-1,0.4l-0.2-0.3c0.3-0.3,0.7-0.5,1.2-0.5c0.4,0,0.7,0.1,1,0.2c0.2,0.1,0.4,0.3,0.4,0.6
		c0,0.2-0.1,0.4-0.2,0.5s-0.3,0.2-0.5,0.2c0.2,0,0.4,0.1,0.6,0.2c0.2,0.1,0.3,0.3,0.3,0.5c0,0.2-0.1,0.5-0.4,0.6
		C107.8,17.2,107.5,17.2,107,17.2z"/>
	<path d="M111.4,17.2h-0.5v-0.3c-0.2,0.3-0.6,0.4-1,0.4c-0.3,0-0.5-0.1-0.7-0.3c-0.2-0.2-0.3-0.4-0.3-0.7c0-0.3,0.1-0.5,0.3-0.7
		s0.4-0.2,0.7-0.2c0.4,0,0.7,0.1,1,0.4v-0.5c0-0.2-0.1-0.3-0.2-0.5s-0.3-0.2-0.5-0.2c-0.3,0-0.6,0.1-0.9,0.4l-0.2-0.3
		c0.3-0.3,0.7-0.5,1.2-0.5c0.3,0,0.6,0.1,0.8,0.2c0.2,0.2,0.3,0.4,0.3,0.7V17.2z M110.1,16.9c0.4,0,0.6-0.1,0.8-0.4V16
		c-0.2-0.2-0.4-0.4-0.8-0.4c-0.2,0-0.4,0.1-0.5,0.2c-0.1,0.1-0.2,0.3-0.2,0.5c0,0.2,0.1,0.3,0.2,0.5
		C109.7,16.9,109.9,16.9,110.1,16.9z"/>
	<path d="M114.3,14.3v0.4h-1.6v2.5h-0.4v-2.9H114.3z"/>
	<path d="M115.3,17.2h-0.4v-2.9h0.5v2.2l1.5-2.2h0.4v2.9h-0.5v-2.3L115.3,17.2z"/>
	<path d="M119.5,17.2c-0.4,0-0.8-0.2-1-0.5c-0.3-0.3-0.4-0.7-0.4-1.2c0-0.7,0.1-1.2,0.4-1.5s0.6-0.5,1.1-0.6c0.3,0,0.5-0.1,0.6-0.1
		s0.2-0.1,0.2-0.2h0.4c0,0.1,0,0.2-0.1,0.3c-0.1,0.1-0.2,0.1-0.3,0.2c-0.1,0-0.2,0.1-0.4,0.1c-0.1,0-0.2,0-0.4,0.1
		c-0.4,0.1-0.7,0.2-0.9,0.3s-0.3,0.4-0.4,0.7c0.3-0.4,0.6-0.6,1.1-0.6c0.4,0,0.7,0.1,1,0.4s0.4,0.7,0.4,1.1c0,0.4-0.1,0.8-0.4,1.1
		S119.9,17.2,119.5,17.2z M118.8,16.5c0.2,0.2,0.4,0.3,0.7,0.3s0.5-0.1,0.7-0.3c0.2-0.2,0.3-0.5,0.3-0.8c0-0.3-0.1-0.6-0.3-0.8
		s-0.4-0.3-0.7-0.3s-0.5,0.1-0.7,0.3s-0.3,0.5-0.3,0.8C118.5,16,118.6,16.3,118.8,16.5z"/>
	<path d="M121.3,17.2v-0.4c0.1,0,0.2-0.1,0.3-0.3c0.1-0.2,0.2-0.5,0.2-0.9l0.2-1.4h2v2.9h-0.4v-2.5h-1.2l-0.1,1.1
		c-0.1,0.5-0.2,0.9-0.3,1.1C121.8,17.1,121.6,17.2,121.3,17.2z"/>
	<path d="M125.4,17.2H125v-2.9h0.5v2.2l1.5-2.2h0.4v2.9h-0.5v-2.3L125.4,17.2z"/>
	<path d="M130.7,17.2h-0.5l-0.9-1.2l-0.9,1.2h-0.5l1.1-1.5l-1-1.4h0.5l0.8,1.1l0.8-1.1h0.5l-1.1,1.4L130.7,17.2z"/>
	<path d="M131.7,14.8c-0.1,0.1-0.1,0.1-0.2,0.1s-0.2,0-0.2-0.1c-0.1-0.1-0.1-0.1-0.1-0.2c0-0.1,0-0.2,0.1-0.2
		c0.1-0.1,0.1-0.1,0.2-0.1s0.2,0,0.2,0.1c0.1,0.1,0.1,0.1,0.1,0.2C131.8,14.7,131.7,14.7,131.7,14.8z M131.7,17.1
		c-0.1,0.1-0.1,0.1-0.2,0.1s-0.2,0-0.2-0.1c-0.1-0.1-0.1-0.1-0.1-0.2c0-0.1,0-0.2,0.1-0.2c0.1-0.1,0.1-0.1,0.2-0.1s0.2,0,0.2,0.1
		c0.1,0.1,0.1,0.1,0.1,0.2C131.8,17,131.7,17.1,131.7,17.1z"/>
</g>
<g class="st3">
	<path d="M80.5,44.2v1c0,0.6,0.3,0.9,0.9,0.9c0.3,0,0.6,0,0.9-0.1v-1.8h0.5v4h-0.5v-1.7c-0.3,0.1-0.7,0.1-1,0.1
		c-0.5,0-0.8-0.1-1-0.4s-0.4-0.6-0.4-1v-1H80.5z"/>
	<path d="M86.1,47.8c-0.3,0.3-0.6,0.4-1,0.4c-0.4,0-0.8-0.1-1-0.4c-0.3-0.3-0.4-0.7-0.4-1.1s0.1-0.8,0.4-1.1c0.3-0.3,0.6-0.4,1-0.4
		c0.4,0,0.8,0.1,1,0.4c0.3,0.3,0.4,0.7,0.4,1.1S86.3,47.5,86.1,47.8z M84.3,47.5c0.2,0.2,0.4,0.3,0.7,0.3c0.3,0,0.5-0.1,0.7-0.3
		S86,47,86,46.7s-0.1-0.6-0.3-0.8c-0.2-0.2-0.4-0.3-0.7-0.3c-0.3,0-0.5,0.1-0.7,0.3c-0.2,0.2-0.3,0.5-0.3,0.8
		C84.1,47,84.2,47.3,84.3,47.5z"/>
	<path d="M88.6,48.2c-0.4,0-0.7-0.2-1-0.5v1.5h-0.5v-4h0.5v0.4c0.1-0.2,0.2-0.3,0.4-0.4s0.4-0.1,0.6-0.1c0.4,0,0.7,0.1,0.9,0.4
		c0.2,0.3,0.4,0.6,0.4,1.1c0,0.5-0.1,0.8-0.4,1.1C89.3,48.1,89,48.2,88.6,48.2z M88.5,47.8c0.3,0,0.5-0.1,0.7-0.3s0.3-0.5,0.3-0.8
		s-0.1-0.6-0.3-0.8c-0.2-0.2-0.4-0.3-0.7-0.3c-0.2,0-0.3,0-0.5,0.1c-0.2,0.1-0.3,0.2-0.4,0.3v1.3c0.1,0.1,0.2,0.2,0.4,0.3
		C88.2,47.8,88.3,47.8,88.5,47.8z"/>
	<path d="M91.1,48.2h-0.4v-2.9h0.4v1.2h1.5v-1.2H93v2.9h-0.4v-1.3h-1.5V48.2z"/>
	<path d="M94.4,48.2h-0.4v-2.9h0.5v2.2l1.5-2.2h0.4v2.9h-0.5v-2.3L94.4,48.2z"/>
	<path d="M100.2,48.2h-0.5v-2.3l-0.9,2.3h-0.2l-0.9-2.3v2.3h-0.4v-2.9h0.6l0.9,2.1l0.9-2.1h0.6V48.2z"/>
</g>
<g class="st3">
	<path d="M105.2,48.2h-0.6l-1-1.3l-0.5,0.5v0.8h-0.4v-2.9h0.4v1.5l1.5-1.5h0.6l-1.3,1.3L105.2,48.2z"/>
</g>
<g class="st3">
	<path d="M108,47.8c-0.3,0.3-0.6,0.4-1,0.4s-0.8-0.1-1-0.4c-0.3-0.3-0.4-0.7-0.4-1.1s0.1-0.8,0.4-1.1c0.3-0.3,0.6-0.4,1-0.4
		s0.8,0.1,1,0.4c0.3,0.3,0.4,0.7,0.4,1.1S108.3,47.5,108,47.8z M106.3,47.5c0.2,0.2,0.4,0.3,0.7,0.3s0.5-0.1,0.7-0.3
		s0.3-0.5,0.3-0.8s-0.1-0.6-0.3-0.8c-0.2-0.2-0.4-0.3-0.7-0.3s-0.5,0.1-0.7,0.3s-0.3,0.5-0.3,0.8C106,47,106.1,47.3,106.3,47.5z"/>
	<path d="M108.8,48.2v-0.4c0.1,0,0.2-0.1,0.3-0.3c0.1-0.2,0.2-0.5,0.2-0.9l0.2-1.4h2v2.9h-0.5v-2.5h-1.2l-0.1,1.1
		c-0.1,0.5-0.2,0.9-0.3,1.1C109.3,48.1,109.1,48.2,108.8,48.2z"/>
	<path d="M112.4,45.3h0.5v1.1h1.1c0.3,0,0.5,0.1,0.7,0.3c0.2,0.2,0.2,0.4,0.2,0.6s-0.1,0.5-0.2,0.6s-0.4,0.3-0.7,0.3h-1.5V45.3z
		 M113.9,46.8h-1v1h1c0.2,0,0.3,0,0.4-0.1c0.1-0.1,0.1-0.2,0.1-0.4c0-0.1,0-0.3-0.1-0.4C114.2,46.8,114.1,46.8,113.9,46.8z"/>
	<path d="M117.9,47.8c-0.3,0.3-0.6,0.4-1,0.4s-0.8-0.1-1-0.4c-0.3-0.3-0.4-0.7-0.4-1.1s0.1-0.8,0.4-1.1c0.3-0.3,0.6-0.4,1-0.4
		s0.8,0.1,1,0.4c0.3,0.3,0.4,0.7,0.4,1.1S118.1,47.5,117.9,47.8z M116.1,47.5c0.2,0.2,0.4,0.3,0.7,0.3s0.5-0.1,0.7-0.3
		s0.3-0.5,0.3-0.8s-0.1-0.6-0.3-0.8c-0.2-0.2-0.4-0.3-0.7-0.3s-0.5,0.1-0.7,0.3s-0.3,0.5-0.3,0.8C115.9,47,116,47.3,116.1,47.5z"/>
	<path d="M120.4,48.2c-0.4,0-0.7-0.2-1-0.5v1.5H119v-4h0.4v0.4c0.1-0.2,0.2-0.3,0.4-0.4s0.4-0.1,0.6-0.1c0.4,0,0.7,0.1,0.9,0.4
		s0.4,0.6,0.4,1.1c0,0.5-0.1,0.8-0.4,1.1S120.8,48.2,120.4,48.2z M120.3,47.8c0.3,0,0.5-0.1,0.7-0.3s0.3-0.5,0.3-0.8
		s-0.1-0.6-0.3-0.8c-0.2-0.2-0.4-0.3-0.7-0.3c-0.2,0-0.3,0-0.5,0.1c-0.2,0.1-0.3,0.2-0.4,0.3v1.3c0.1,0.1,0.2,0.2,0.4,0.3
		S120.1,47.8,120.3,47.8z"/>
	<path d="M124.7,47.8c-0.3,0.3-0.6,0.4-1,0.4c-0.4,0-0.8-0.1-1-0.4c-0.3-0.3-0.4-0.7-0.4-1.1s0.1-0.8,0.4-1.1c0.3-0.3,0.6-0.4,1-0.4
		c0.4,0,0.8,0.1,1,0.4c0.3,0.3,0.4,0.7,0.4,1.1S125,47.5,124.7,47.8z M123,47.5c0.2,0.2,0.4,0.3,0.7,0.3c0.3,0,0.5-0.1,0.7-0.3
		s0.3-0.5,0.3-0.8s-0.1-0.6-0.3-0.8c-0.2-0.2-0.4-0.3-0.7-0.3c-0.3,0-0.5,0.1-0.7,0.3c-0.2,0.2-0.3,0.5-0.3,0.8
		C122.7,47,122.8,47.3,123,47.5z"/>
	<path d="M128.8,48.2h-0.5v-2.3l-0.9,2.3h-0.2l-0.9-2.3v2.3h-0.4v-2.9h0.6l0.9,2.1l0.9-2.1h0.6V48.2z"/>
</g>
<g class="st3">
	<path d="M82.5,55.4h-0.5v-2.5h-1.5v2.5h-0.5v-2.9h2.4V55.4z"/>
	<path d="M85.7,55c-0.3,0.3-0.6,0.4-1,0.4s-0.8-0.1-1-0.4c-0.3-0.3-0.4-0.7-0.4-1.1c0-0.4,0.1-0.8,0.4-1.1c0.3-0.3,0.6-0.4,1-0.4
		s0.8,0.1,1,0.4c0.3,0.3,0.4,0.7,0.4,1.1C86.1,54.4,86,54.7,85.7,55z M84,54.7c0.2,0.2,0.4,0.3,0.7,0.3s0.5-0.1,0.7-0.3
		c0.2-0.2,0.3-0.5,0.3-0.8c0-0.3-0.1-0.6-0.3-0.8c-0.2-0.2-0.4-0.3-0.7-0.3s-0.5,0.1-0.7,0.3c-0.2,0.2-0.3,0.5-0.3,0.8
		C83.7,54.2,83.8,54.5,84,54.7z"/>
	<path d="M87.9,55.5c-0.6,0-1-0.2-1.3-0.5l0.2-0.3c0.3,0.3,0.6,0.4,1.1,0.4c0.3,0,0.5,0,0.6-0.1c0.2-0.1,0.2-0.2,0.2-0.4
		c0-0.3-0.3-0.5-0.9-0.5h-0.6v-0.4h0.6c0.3,0,0.5,0,0.6-0.1c0.2-0.1,0.2-0.2,0.2-0.4c0-0.1-0.1-0.2-0.2-0.3
		c-0.2-0.1-0.4-0.1-0.6-0.1c-0.4,0-0.7,0.1-1,0.4l-0.2-0.3c0.3-0.3,0.7-0.5,1.2-0.5c0.4,0,0.7,0.1,1,0.2s0.4,0.3,0.4,0.6
		c0,0.2-0.1,0.4-0.2,0.5c-0.2,0.1-0.3,0.2-0.5,0.2c0.2,0,0.4,0.1,0.6,0.2c0.2,0.1,0.3,0.3,0.3,0.5c0,0.2-0.1,0.5-0.4,0.6
		C88.6,55.4,88.3,55.5,87.9,55.5z"/>
	<path d="M90.4,55.4h-0.4v-2.9h0.4v1.2h1.5v-1.2h0.4v2.9h-0.4v-1.3h-1.5V55.4z"/>
	<path d="M95.5,55.4H95V55c-0.2,0.3-0.6,0.4-1,0.4c-0.3,0-0.5-0.1-0.7-0.3c-0.2-0.2-0.3-0.4-0.3-0.7c0-0.3,0.1-0.5,0.3-0.7
		c0.2-0.2,0.4-0.2,0.7-0.2c0.4,0,0.7,0.1,1,0.4v-0.5c0-0.2-0.1-0.3-0.2-0.4c-0.1-0.1-0.3-0.2-0.5-0.2c-0.3,0-0.6,0.1-0.9,0.4
		l-0.2-0.3c0.3-0.3,0.7-0.5,1.2-0.5c0.3,0,0.6,0.1,0.8,0.2s0.3,0.4,0.3,0.7V55.4z M94.3,55.1c0.4,0,0.6-0.1,0.8-0.4v-0.5
		c-0.2-0.2-0.4-0.4-0.8-0.4c-0.2,0-0.4,0.1-0.5,0.2c-0.1,0.1-0.2,0.3-0.2,0.5c0,0.2,0.1,0.3,0.2,0.5C93.9,55.1,94,55.1,94.3,55.1z"
		/>
	<path d="M96.3,52.5h0.4v0.8c0,0.3,0.1,0.4,0.2,0.5s0.3,0.2,0.6,0.2c0.3,0,0.6-0.1,0.8-0.2v-1.3h0.4v2.9h-0.4v-1.2
		c-0.3,0.1-0.6,0.2-0.9,0.2c-0.4,0-0.6-0.1-0.8-0.2s-0.3-0.4-0.3-0.7V52.5z"/>
	<path d="M101,55.5c-0.4,0-0.8-0.1-1.1-0.4s-0.4-0.6-0.4-1.1c0-0.4,0.1-0.8,0.4-1.1c0.3-0.3,0.6-0.4,1-0.4c0.4,0,0.8,0.1,1,0.4
		c0.2,0.3,0.4,0.7,0.4,1.1v0.1H100c0,0.3,0.1,0.5,0.3,0.7c0.2,0.2,0.4,0.3,0.7,0.3c0.4,0,0.7-0.1,0.9-0.4l0.2,0.3
		C101.8,55.3,101.4,55.5,101,55.5z M101.9,53.7c0-0.2-0.1-0.5-0.3-0.7c-0.2-0.2-0.4-0.3-0.7-0.3c-0.3,0-0.5,0.1-0.7,0.3
		s-0.3,0.4-0.3,0.7H101.9z"/>
	<path d="M103.5,55.4H103v-2.9h0.5v1.2h1.5v-1.2h0.5v2.9H105v-1.3h-1.5V55.4z"/>
	<path d="M108.6,55c-0.3,0.3-0.6,0.4-1,0.4c-0.4,0-0.8-0.1-1-0.4c-0.3-0.3-0.4-0.7-0.4-1.1c0-0.4,0.1-0.8,0.4-1.1
		c0.3-0.3,0.6-0.4,1-0.4c0.4,0,0.8,0.1,1,0.4c0.3,0.3,0.4,0.7,0.4,1.1C109,54.4,108.9,54.7,108.6,55z M106.9,54.7
		c0.2,0.2,0.4,0.3,0.7,0.3c0.3,0,0.5-0.1,0.7-0.3c0.2-0.2,0.3-0.5,0.3-0.8c0-0.3-0.1-0.6-0.3-0.8c-0.2-0.2-0.4-0.3-0.7-0.3
		c-0.3,0-0.5,0.1-0.7,0.3c-0.2,0.2-0.3,0.5-0.3,0.8C106.6,54.2,106.7,54.5,106.9,54.7z"/>
	<path d="M113.7,55.4h-0.4v-2.5h-1.5v2.5h-0.4v-2.9h2.4V55.4z"/>
	<path d="M116.9,55c-0.3,0.3-0.6,0.4-1,0.4c-0.4,0-0.8-0.1-1-0.4c-0.3-0.3-0.4-0.7-0.4-1.1c0-0.4,0.1-0.8,0.4-1.1
		c0.3-0.3,0.6-0.4,1-0.4c0.4,0,0.8,0.1,1,0.4c0.3,0.3,0.4,0.7,0.4,1.1C117.3,54.4,117.2,54.7,116.9,55z M115.2,54.7
		c0.2,0.2,0.4,0.3,0.7,0.3c0.3,0,0.5-0.1,0.7-0.3c0.2-0.2,0.3-0.5,0.3-0.8c0-0.3-0.1-0.6-0.3-0.8c-0.2-0.2-0.4-0.3-0.7-0.3
		c-0.3,0-0.5,0.1-0.7,0.3c-0.2,0.2-0.3,0.5-0.3,0.8C114.9,54.2,115,54.5,115.2,54.7z"/>
	<path d="M119.7,55.4h-1.6v-2.9h1.6c0.3,0,0.5,0.1,0.6,0.2c0.1,0.1,0.2,0.3,0.2,0.5c0,0.2,0,0.3-0.1,0.4c-0.1,0.1-0.2,0.2-0.3,0.2
		c0.1,0,0.3,0.1,0.4,0.3c0.1,0.1,0.2,0.3,0.2,0.4c0,0.2-0.1,0.4-0.2,0.6C120.2,55.3,119.9,55.4,119.7,55.4z M119.6,53.7
		c0.1,0,0.2,0,0.3-0.1c0.1-0.1,0.1-0.2,0.1-0.3c0-0.1,0-0.2-0.1-0.3c-0.1-0.1-0.2-0.1-0.3-0.1h-1.1v0.8H119.6z M119.6,55
		c0.1,0,0.3,0,0.3-0.1s0.1-0.2,0.1-0.3c0-0.1,0-0.2-0.1-0.3s-0.2-0.1-0.3-0.1h-1.1V55H119.6z"/>
	<path d="M121.8,55.4h-0.5v-2.9h0.5v1.2h1.5v-1.2h0.5v2.9h-0.5v-1.3h-1.5V55.4z"/>
	<path d="M124.9,52.1c-0.1,0-0.2,0-0.2-0.1c-0.1-0.1-0.1-0.1-0.1-0.2s0-0.2,0.1-0.2c0.1-0.1,0.1-0.1,0.2-0.1c0.1,0,0.2,0,0.2,0.1
		c0.1,0.1,0.1,0.1,0.1,0.2s0,0.2-0.1,0.2C125.1,52,125,52.1,124.9,52.1z M125.1,55.4h-0.4v-2.9h0.4V55.4z"/>
	<path d="M127.3,55.5c-0.4,0-0.8-0.1-1-0.4c-0.3-0.3-0.4-0.7-0.4-1.1c0-0.4,0.1-0.8,0.4-1.1c0.3-0.3,0.6-0.4,1-0.4
		c0.4,0,0.8,0.2,1.1,0.5l-0.3,0.3c-0.2-0.3-0.4-0.4-0.7-0.4c-0.3,0-0.5,0.1-0.7,0.3c-0.2,0.2-0.3,0.5-0.3,0.8s0.1,0.6,0.3,0.8
		c0.2,0.2,0.4,0.3,0.7,0.3c0.3,0,0.5-0.1,0.7-0.4l0.3,0.3C128.1,55.3,127.8,55.5,127.3,55.5z"/>
	<path d="M130,55.4h-0.5v-2.5h-0.8v-0.4h2.1v0.4H130V55.4z"/>
	<path d="M133.9,55.5c-0.4,0-0.7-0.1-1-0.4c-0.3-0.3-0.4-0.6-0.4-1h-0.6v1.3h-0.5v-2.9h0.5v1.2h0.6c0-0.4,0.2-0.7,0.5-0.9
		c0.3-0.2,0.6-0.4,1-0.4c0.4,0,0.8,0.1,1,0.4c0.3,0.3,0.4,0.7,0.4,1.1c0,0.4-0.1,0.8-0.4,1.1C134.6,55.3,134.3,55.5,133.9,55.5z
		 M133.9,55c0.3,0,0.5-0.1,0.7-0.3c0.2-0.2,0.3-0.5,0.3-0.8c0-0.3-0.1-0.6-0.3-0.8c-0.2-0.2-0.4-0.3-0.7-0.3c-0.3,0-0.5,0.1-0.7,0.3
		c-0.2,0.2-0.3,0.5-0.3,0.8c0,0.3,0.1,0.6,0.3,0.8C133.3,54.9,133.6,55,133.9,55z"/>
</g>
<g class="st3">
	<path d="M81.4,62.6c-0.4,0-0.8-0.1-1-0.4c-0.3-0.3-0.4-0.7-0.4-1.1c0-0.4,0.1-0.8,0.4-1.1c0.3-0.3,0.6-0.4,1-0.4
		c0.4,0,0.8,0.2,1.1,0.5l-0.3,0.3C82,60.1,81.7,60,81.4,60c-0.3,0-0.5,0.1-0.7,0.3c-0.2,0.2-0.3,0.5-0.3,0.8s0.1,0.6,0.3,0.8
		c0.2,0.2,0.4,0.3,0.7,0.3c0.3,0,0.5-0.1,0.7-0.4l0.3,0.3C82.2,62.5,81.8,62.6,81.4,62.6z"/>
	<path d="M85.5,62.6H85v-2.5h-1.5v2.5h-0.5v-2.9h2.4V62.6z"/>
	<path d="M88.6,62.6h-0.5v-0.3c-0.2,0.3-0.6,0.4-1,0.4c-0.3,0-0.5-0.1-0.7-0.3c-0.2-0.2-0.3-0.4-0.3-0.7c0-0.3,0.1-0.5,0.3-0.7
		s0.4-0.2,0.7-0.2c0.4,0,0.7,0.1,1,0.4v-0.5c0-0.2-0.1-0.3-0.2-0.5S87.7,60,87.5,60c-0.3,0-0.6,0.1-0.9,0.4l-0.2-0.3
		c0.3-0.3,0.7-0.5,1.2-0.5c0.3,0,0.6,0.1,0.8,0.2c0.2,0.2,0.3,0.4,0.3,0.7V62.6z M87.4,62.3c0.4,0,0.6-0.1,0.8-0.4v-0.5
		c-0.2-0.2-0.4-0.4-0.8-0.4c-0.2,0-0.4,0.1-0.5,0.2c-0.1,0.1-0.2,0.3-0.2,0.5c0,0.2,0.1,0.3,0.2,0.5C87,62.3,87.2,62.3,87.4,62.3z"
		/>
	<path d="M89.2,62.6v-0.4c0.1,0,0.2-0.1,0.3-0.3c0.1-0.2,0.2-0.5,0.2-0.9l0.2-1.4h2v2.9h-0.4v-2.5h-1.2l-0.1,1.1
		c-0.1,0.5-0.2,0.9-0.3,1.1C89.7,62.5,89.5,62.6,89.2,62.6z"/>
	<path d="M94.2,62.6c-0.4,0-0.8-0.1-1.1-0.4c-0.3-0.3-0.4-0.6-0.4-1.1c0-0.4,0.1-0.8,0.4-1.1c0.3-0.3,0.6-0.4,1-0.4
		c0.4,0,0.8,0.1,1,0.4s0.4,0.7,0.4,1.1v0.1h-2.3c0,0.3,0.1,0.5,0.3,0.7c0.2,0.2,0.4,0.3,0.7,0.3c0.4,0,0.7-0.1,0.9-0.4l0.2,0.3
		C95,62.5,94.6,62.6,94.2,62.6z M95.1,60.9c0-0.2-0.1-0.5-0.3-0.7S94.4,60,94.1,60c-0.3,0-0.5,0.1-0.7,0.3c-0.2,0.2-0.3,0.4-0.3,0.7
		H95.1z"/>
	<path d="M96.7,62.6h-0.5v-2.9h0.5v1.2h1.5v-1.2h0.5v2.9h-0.5v-1.3h-1.5V62.6z"/>
	<path d="M99.8,59.3c-0.1,0-0.2,0-0.2-0.1c-0.1-0.1-0.1-0.1-0.1-0.2s0-0.2,0.1-0.2c0.1-0.1,0.1-0.1,0.2-0.1c0.1,0,0.2,0,0.2,0.1
		c0.1,0.1,0.1,0.1,0.1,0.2s0,0.2-0.1,0.2C99.9,59.2,99.8,59.3,99.8,59.3z M100,62.6h-0.4v-2.9h0.4V62.6z"/>
	<path d="M103.7,62.6c-0.4,0-0.8-0.1-1-0.4c-0.3-0.3-0.4-0.7-0.4-1.1c0-0.4,0.1-0.8,0.4-1.1c0.3-0.3,0.6-0.4,1-0.4
		c0.4,0,0.8,0.2,1.1,0.5l-0.3,0.3c-0.2-0.3-0.4-0.4-0.7-0.4c-0.3,0-0.5,0.1-0.7,0.3c-0.2,0.2-0.3,0.5-0.3,0.8s0.1,0.6,0.3,0.8
		c0.2,0.2,0.4,0.3,0.7,0.3c0.3,0,0.5-0.1,0.7-0.4l0.3,0.3C104.5,62.5,104.2,62.6,103.7,62.6z"/>
	<path d="M106.7,62.6c-0.4,0-0.8-0.1-1.1-0.4c-0.3-0.3-0.4-0.6-0.4-1.1c0-0.4,0.1-0.8,0.4-1.1c0.3-0.3,0.6-0.4,1-0.4
		c0.4,0,0.8,0.1,1,0.4s0.4,0.7,0.4,1.1v0.1h-2.3c0,0.3,0.1,0.5,0.3,0.7c0.2,0.2,0.4,0.3,0.7,0.3c0.4,0,0.7-0.1,0.9-0.4l0.2,0.3
		C107.6,62.5,107.2,62.6,106.7,62.6z M107.6,60.9c0-0.2-0.1-0.5-0.3-0.7S107,60,106.7,60c-0.3,0-0.5,0.1-0.7,0.3
		c-0.2,0.2-0.3,0.4-0.3,0.7H107.6z"/>
	<path d="M108.4,62.6v-0.4c0.1,0,0.2-0.1,0.3-0.3c0.1-0.2,0.2-0.5,0.2-0.9l0.2-1.4h2v2.9h-0.5v-2.5h-1.2l-0.1,1.1
		c-0.1,0.5-0.2,0.9-0.3,1.1C109,62.5,108.7,62.6,108.4,62.6z"/>
	<path d="M114.4,62.6h-0.5v-0.3c-0.2,0.3-0.6,0.4-1,0.4c-0.3,0-0.5-0.1-0.7-0.3c-0.2-0.2-0.3-0.4-0.3-0.7c0-0.3,0.1-0.5,0.3-0.7
		s0.4-0.2,0.7-0.2c0.4,0,0.7,0.1,1,0.4v-0.5c0-0.2-0.1-0.3-0.2-0.5s-0.3-0.2-0.5-0.2c-0.3,0-0.6,0.1-0.9,0.4l-0.2-0.3
		c0.3-0.3,0.7-0.5,1.2-0.5c0.3,0,0.6,0.1,0.8,0.2c0.2,0.2,0.3,0.4,0.3,0.7V62.6z M113.1,62.3c0.4,0,0.6-0.1,0.8-0.4v-0.5
		c-0.2-0.2-0.4-0.4-0.8-0.4c-0.2,0-0.4,0.1-0.5,0.2c-0.1,0.1-0.2,0.3-0.2,0.5c0,0.2,0.1,0.3,0.2,0.5
		C112.7,62.3,112.9,62.3,113.1,62.3z"/>
</g>
<g class="st3">
	<path d="M76.9,34.9h-0.5v-3.3l-0.6,0.7L75.5,32l1-1h0.4V34.9z"/>
</g>
<g class="st3">
	<path d="M130,35c-0.3,0-0.5-0.1-0.7-0.2c-0.2-0.1-0.4-0.3-0.5-0.5c-0.1-0.2-0.2-0.4-0.3-0.7c-0.1-0.2-0.1-0.5-0.1-0.8
		c0-0.4,0.1-0.7,0.2-1c0.1-0.3,0.3-0.6,0.5-0.8c0.2-0.2,0.6-0.3,0.9-0.3c0.5,0,0.8,0.2,1.1,0.5l-0.3,0.4c-0.2-0.3-0.5-0.4-0.9-0.4
		c-0.2,0-0.5,0.1-0.6,0.2s-0.3,0.3-0.4,0.6c-0.1,0.2-0.1,0.5-0.1,0.8c0,0.1,0,0.1,0,0.2c0.1-0.2,0.3-0.3,0.5-0.4s0.4-0.2,0.7-0.2
		c0.4,0,0.7,0.1,0.9,0.3c0.2,0.2,0.4,0.5,0.4,0.9c0,0.4-0.1,0.7-0.4,0.9C130.7,34.9,130.4,35,130,35z M130,34.6
		c0.3,0,0.5-0.1,0.7-0.3s0.2-0.4,0.2-0.6c0-0.3-0.1-0.5-0.3-0.6c-0.2-0.1-0.4-0.2-0.7-0.2c-0.2,0-0.4,0.1-0.6,0.2s-0.3,0.3-0.4,0.4
		c0,0.3,0.1,0.6,0.3,0.8S129.6,34.6,130,34.6z"/>
	<path d="M134.5,34.9H134l1.6-3.6h-2.2v-0.4h2.7v0.3L134.5,34.9z"/>
	<path d="M138.2,35c-0.3,0-0.5-0.1-0.7-0.2c-0.2-0.1-0.4-0.3-0.5-0.5c-0.1-0.2-0.2-0.4-0.3-0.7c-0.1-0.2-0.1-0.5-0.1-0.7
		s0-0.5,0.1-0.7c0.1-0.2,0.1-0.5,0.3-0.7c0.1-0.2,0.3-0.4,0.5-0.5c0.2-0.1,0.4-0.2,0.7-0.2c0.3,0,0.5,0.1,0.7,0.2s0.4,0.3,0.5,0.5
		c0.1,0.2,0.2,0.4,0.3,0.7c0.1,0.2,0.1,0.5,0.1,0.7s0,0.5-0.1,0.7c-0.1,0.2-0.1,0.5-0.3,0.7c-0.1,0.2-0.3,0.4-0.5,0.5
		S138.4,35,138.2,35z M137.6,34.3c0.2,0.2,0.4,0.2,0.6,0.2c0.2,0,0.4-0.1,0.6-0.2c0.2-0.2,0.3-0.4,0.3-0.6c0.1-0.2,0.1-0.5,0.1-0.8
		s0-0.5-0.1-0.8c-0.1-0.2-0.2-0.4-0.3-0.6c-0.2-0.2-0.4-0.2-0.6-0.2c-0.2,0-0.4,0.1-0.6,0.2s-0.3,0.4-0.3,0.6
		c-0.1,0.2-0.1,0.5-0.1,0.8s0,0.5,0.1,0.8C137.3,33.9,137.4,34.1,137.6,34.3z"/>
	<path d="M141.8,35c-0.3,0-0.5-0.1-0.7-0.2c-0.2-0.1-0.4-0.3-0.5-0.5c-0.1-0.2-0.2-0.4-0.3-0.7c-0.1-0.2-0.1-0.5-0.1-0.7
		s0-0.5,0.1-0.7c0.1-0.2,0.1-0.5,0.3-0.7c0.1-0.2,0.3-0.4,0.5-0.5c0.2-0.1,0.4-0.2,0.7-0.2c0.3,0,0.5,0.1,0.7,0.2s0.4,0.3,0.5,0.5
		c0.1,0.2,0.2,0.4,0.3,0.7c0.1,0.2,0.1,0.5,0.1,0.7s0,0.5-0.1,0.7c-0.1,0.2-0.1,0.5-0.3,0.7c-0.1,0.2-0.3,0.4-0.5,0.5
		S142.1,35,141.8,35z M141.2,34.3c0.2,0.2,0.4,0.2,0.6,0.2c0.2,0,0.4-0.1,0.6-0.2c0.2-0.2,0.3-0.4,0.3-0.6c0.1-0.2,0.1-0.5,0.1-0.8
		s0-0.5-0.1-0.8c-0.1-0.2-0.2-0.4-0.3-0.6c-0.2-0.2-0.4-0.2-0.6-0.2c-0.2,0-0.4,0.1-0.6,0.2s-0.3,0.4-0.3,0.6
		c-0.1,0.2-0.1,0.5-0.1,0.8s0,0.5,0.1,0.8C141,33.9,141.1,34.1,141.2,34.3z"/>
</g>
<g>
	<g>
		<defs>
			<rect id="SVGID_7_" x="79.6" y="30.2" width="46.5" height="6"/>
		</defs>
		<clipPath id="SVGID_8_">
			<use xlink:href="#SVGID_7_"  style="overflow:visible;"/>
		</clipPath>
		
			<linearGradient id="SVGID_9_" gradientUnits="userSpaceOnUse" x1="-1721.8269" y1="2.2653" x2="-1720.8269" y2="2.2653" gradientTransform="matrix(46.5 0 0 46.5 80144.5938 -72.1387)">
			<stop  offset="0" style="stop-color:#EFB9B6"/>
			<stop  offset="0.4909" style="stop-color:#D54432"/>
			<stop  offset="1" style="stop-color:#351514"/>
		</linearGradient>
		<rect x="79.6" y="30.2" class="st4" width="46.5" height="6"/>
	</g>
</g>
<g>
	<g>
		<defs>
			<rect id="SVGID_10_" x="-0.8" y="5.4" width="157.9" height="71.5"/>
		</defs>
		<clipPath id="SVGID_11_">
			<use xlink:href="#SVGID_10_"  style="overflow:visible;"/>
		</clipPath>
		<path class="st5" d="M84.6,76.9c2.8,0,5-2.2,5-5s-2.2-5-5-5s-5,2.2-5,5C79.6,74.7,81.9,76.9,84.6,76.9"/>
	</g>
</g>
</svg>
