<?xml version="1.0" encoding="utf-8"?>
<!-- Generator: Adobe Illustrator 25.2.3, SVG Export Plug-In . SVG Version: 6.00 Build 0)  -->
<svg version="1.1" id="Layer_1" xmlns="http://www.w3.org/2000/svg" xmlns:xlink="http://www.w3.org/1999/xlink" x="0px" y="0px"
	 viewBox="0 0 158 88.9" style="enable-background:new 0 0 158 88.9;" xml:space="preserve">
<style type="text/css">
	.st0{clip-path:url(#SVGID_2_);fill:none;stroke:#000000;stroke-width:0.5;}
	.st1{clip-path:url(#SVGID_4_);fill:none;stroke:#000000;stroke-width:0.5;}
	.st2{clip-path:url(#SVGID_6_);fill:none;stroke:#000000;stroke-width:0.5;}
	.st3{enable-background:new    ;}
	.st4{clip-path:url(#SVGID_8_);fill:url(#SVGID_9_);}
</style>
<g>
	<g>
		<defs>
			<rect id="SVGID_1_" x="1.8" y="13.1" width="154.4" height="57.1"/>
		</defs>
		<clipPath id="SVGID_2_">
			<use xlink:href="#SVGID_1_"  style="overflow:visible;"/>
		</clipPath>
		<circle class="st0" cx="34.8" cy="56.1" r="5"/>
	</g>
	<g>
		<defs>
			<rect id="SVGID_3_" x="1.8" y="13.1" width="154.4" height="57.1"/>
		</defs>
		<clipPath id="SVGID_4_">
			<use xlink:href="#SVGID_3_"  style="overflow:visible;"/>
		</clipPath>
		<circle class="st1" cx="34.8" cy="53.1" r="8"/>
	</g>
	<g>
		<defs>
			<rect id="SVGID_5_" x="1.8" y="13.1" width="154.4" height="57.1"/>
		</defs>
		<clipPath id="SVGID_6_">
			<use xlink:href="#SVGID_5_"  style="overflow:visible;"/>
		</clipPath>
		<circle class="st2" cx="34.8" cy="49.6" r="11.5"/>
	</g>
</g>
<g class="st3">
	<path d="M31.7,67.6h-0.5v-3.3l-0.6,0.7l-0.3-0.3l1-1h0.4V67.6z"/>
	<path d="M34,67.7c-0.3,0-0.5-0.1-0.7-0.2c-0.2-0.1-0.4-0.3-0.5-0.5c-0.1-0.2-0.2-0.4-0.3-0.7c-0.1-0.2-0.1-0.5-0.1-0.7
		s0-0.5,0.1-0.7c0.1-0.2,0.1-0.5,0.3-0.7c0.1-0.2,0.3-0.4,0.5-0.5c0.2-0.1,0.4-0.2,0.7-0.2c0.3,0,0.5,0.1,0.7,0.2
		c0.2,0.1,0.4,0.3,0.5,0.5c0.1,0.2,0.2,0.4,0.3,0.7c0.1,0.2,0.1,0.5,0.1,0.7s0,0.5-0.1,0.7c-0.1,0.2-0.1,0.5-0.3,0.7
		c-0.1,0.2-0.3,0.4-0.5,0.5C34.5,67.6,34.2,67.7,34,67.7z M33.4,67c0.2,0.2,0.4,0.2,0.6,0.2c0.2,0,0.4-0.1,0.6-0.2
		c0.2-0.2,0.3-0.4,0.3-0.6c0.1-0.2,0.1-0.5,0.1-0.8s0-0.5-0.1-0.8c-0.1-0.2-0.2-0.4-0.3-0.6C34.4,64.1,34.2,64,34,64
		c-0.2,0-0.4,0.1-0.6,0.2c-0.2,0.2-0.3,0.4-0.3,0.6C33,65,33,65.3,33,65.6s0,0.5,0.1,0.8C33.1,66.6,33.2,66.8,33.4,67z"/>
	<path d="M37.7,67.7c-0.3,0-0.5-0.1-0.7-0.2c-0.2-0.1-0.4-0.3-0.5-0.5c-0.1-0.2-0.2-0.4-0.3-0.7c-0.1-0.2-0.1-0.5-0.1-0.7
		s0-0.5,0.1-0.7c0.1-0.2,0.1-0.5,0.3-0.7c0.1-0.2,0.3-0.4,0.5-0.5c0.2-0.1,0.4-0.2,0.7-0.2c0.3,0,0.5,0.1,0.7,0.2
		c0.2,0.1,0.4,0.3,0.5,0.5c0.1,0.2,0.2,0.4,0.3,0.7c0.1,0.2,0.1,0.5,0.1,0.7s0,0.5-0.1,0.7C39,66.6,39,66.8,38.8,67
		c-0.1,0.2-0.3,0.4-0.5,0.5C38.2,67.6,37.9,67.7,37.7,67.7z M37.1,67c0.2,0.2,0.4,0.2,0.6,0.2c0.2,0,0.4-0.1,0.6-0.2
		c0.2-0.2,0.3-0.4,0.3-0.6c0.1-0.2,0.1-0.5,0.1-0.8s0-0.5-0.1-0.8c-0.1-0.2-0.2-0.4-0.3-0.6c-0.2-0.2-0.4-0.2-0.6-0.2
		c-0.2,0-0.4,0.1-0.6,0.2c-0.2,0.2-0.3,0.4-0.3,0.6c-0.1,0.2-0.1,0.5-0.1,0.8s0,0.5,0.1,0.8C36.8,66.6,36.9,66.8,37.1,67z"/>
</g>
<g class="st3">
	<path d="M27.2,36.6h-0.5v-3.3l-0.6,0.7l-0.3-0.3l1-1h0.4V36.6z"/>
	<path d="M29.5,36.7c-0.3,0-0.5-0.1-0.7-0.2c-0.2-0.1-0.4-0.3-0.5-0.5c-0.1-0.2-0.2-0.4-0.3-0.7C28,35.1,28,34.9,28,34.6
		s0-0.5,0.1-0.7c0.1-0.2,0.1-0.5,0.3-0.7c0.1-0.2,0.3-0.4,0.5-0.5c0.2-0.1,0.4-0.2,0.7-0.2c0.3,0,0.5,0.1,0.7,0.2
		c0.2,0.1,0.4,0.3,0.5,0.5c0.1,0.2,0.2,0.4,0.3,0.7c0.1,0.2,0.1,0.5,0.1,0.7s0,0.5-0.1,0.7c-0.1,0.2-0.1,0.5-0.3,0.7
		c-0.1,0.2-0.3,0.4-0.5,0.5C30,36.6,29.8,36.7,29.5,36.7z M28.9,36c0.2,0.2,0.4,0.2,0.6,0.2c0.2,0,0.4-0.1,0.6-0.2
		c0.2-0.2,0.3-0.4,0.3-0.6c0.1-0.2,0.1-0.5,0.1-0.8s0-0.5-0.1-0.8c-0.1-0.2-0.2-0.4-0.3-0.6C30,33.1,29.8,33,29.5,33
		c-0.2,0-0.4,0.1-0.6,0.2c-0.2,0.2-0.3,0.4-0.3,0.6c-0.1,0.2-0.1,0.5-0.1,0.8s0,0.5,0.1,0.8C28.7,35.6,28.8,35.8,28.9,36z"/>
	<path d="M34.8,36.7c-0.3,0-0.5-0.1-0.7-0.2c-0.2-0.1-0.4-0.3-0.5-0.5c-0.1-0.2-0.2-0.4-0.3-0.7c-0.1-0.2-0.1-0.5-0.1-0.7
		s0-0.5,0.1-0.7c0.1-0.2,0.1-0.5,0.3-0.7c0.1-0.2,0.3-0.4,0.5-0.5c0.2-0.1,0.4-0.2,0.7-0.2c0.3,0,0.5,0.1,0.7,0.2
		c0.2,0.1,0.4,0.3,0.5,0.5c0.1,0.2,0.2,0.4,0.3,0.7c0.1,0.2,0.1,0.5,0.1,0.7s0,0.5-0.1,0.7c-0.1,0.2-0.1,0.5-0.3,0.7
		c-0.1,0.2-0.3,0.4-0.5,0.5C35.3,36.6,35,36.7,34.8,36.7z M34.2,36c0.2,0.2,0.4,0.2,0.6,0.2c0.2,0,0.4-0.1,0.6-0.2
		c0.2-0.2,0.3-0.4,0.3-0.6c0.1-0.2,0.1-0.5,0.1-0.8s0-0.5-0.1-0.8c-0.1-0.2-0.2-0.4-0.3-0.6C35.2,33.1,35,33,34.8,33
		c-0.2,0-0.4,0.1-0.6,0.2c-0.2,0.2-0.3,0.4-0.3,0.6c-0.1,0.2-0.1,0.5-0.1,0.8s0,0.5,0.1,0.8C33.9,35.6,34,35.8,34.2,36z"/>
	<path d="M38.4,36.7c-0.3,0-0.5-0.1-0.7-0.2c-0.2-0.1-0.4-0.3-0.5-0.5c-0.1-0.2-0.2-0.4-0.3-0.7c-0.1-0.2-0.1-0.5-0.1-0.7
		s0-0.5,0.1-0.7c0.1-0.2,0.1-0.5,0.3-0.7c0.1-0.2,0.3-0.4,0.5-0.5c0.2-0.1,0.4-0.2,0.7-0.2c0.3,0,0.5,0.1,0.7,0.2
		c0.2,0.1,0.4,0.3,0.5,0.5c0.1,0.2,0.2,0.4,0.3,0.7c0.1,0.2,0.1,0.5,0.1,0.7s0,0.5-0.1,0.7c-0.1,0.2-0.1,0.5-0.3,0.7
		c-0.1,0.2-0.3,0.4-0.5,0.5C38.9,36.6,38.7,36.7,38.4,36.7z M37.8,36c0.2,0.2,0.4,0.2,0.6,0.2c0.2,0,0.4-0.1,0.6-0.2
		c0.2-0.2,0.3-0.4,0.3-0.6c0.1-0.2,0.1-0.5,0.1-0.8s0-0.5-0.1-0.8c-0.1-0.2-0.2-0.4-0.3-0.6c-0.2-0.2-0.4-0.2-0.6-0.2
		c-0.2,0-0.4,0.1-0.6,0.2c-0.2,0.2-0.3,0.4-0.3,0.6c-0.1,0.2-0.1,0.5-0.1,0.8s0,0.5,0.1,0.8C37.6,35.6,37.7,35.8,37.8,36z"/>
	<path d="M42.1,36.7c-0.3,0-0.5-0.1-0.7-0.2c-0.2-0.1-0.4-0.3-0.5-0.5c-0.1-0.2-0.2-0.4-0.3-0.7c-0.1-0.2-0.1-0.5-0.1-0.7
		s0-0.5,0.1-0.7c0.1-0.2,0.1-0.5,0.3-0.7c0.1-0.2,0.3-0.4,0.5-0.5c0.2-0.1,0.4-0.2,0.7-0.2c0.3,0,0.5,0.1,0.7,0.2
		c0.2,0.1,0.4,0.3,0.5,0.5c0.1,0.2,0.2,0.4,0.3,0.7c0.1,0.2,0.1,0.5,0.1,0.7s0,0.5-0.1,0.7c-0.1,0.2-0.1,0.5-0.3,0.7
		c-0.1,0.2-0.3,0.4-0.5,0.5C42.6,36.6,42.4,36.7,42.1,36.7z M41.5,36c0.2,0.2,0.4,0.2,0.6,0.2c0.2,0,0.4-0.1,0.6-0.2
		c0.2-0.2,0.3-0.4,0.3-0.6c0.1-0.2,0.1-0.5,0.1-0.8s0-0.5-0.1-0.8c-0.1-0.2-0.2-0.4-0.3-0.6c-0.2-0.2-0.4-0.2-0.6-0.2
		c-0.2,0-0.4,0.1-0.6,0.2c-0.2,0.2-0.3,0.4-0.3,0.6c-0.1,0.2-0.1,0.5-0.1,0.8s0,0.5,0.1,0.8C41.2,35.6,41.3,35.8,41.5,36z"/>
</g>
<g class="st3">
	<path d="M17.4,24.8h-0.6L15.3,23l-0.4,0.5v1.3h-0.5v-4h0.5v2.1l1.8-2.1h0.6l-1.7,1.9L17.4,24.8z"/>
	<path d="M18.2,21.5c-0.1,0-0.1,0-0.2-0.1c-0.1-0.1-0.1-0.1-0.1-0.2s0-0.2,0.1-0.2c0.1-0.1,0.1-0.1,0.2-0.1c0.1,0,0.2,0,0.2,0.1
		c0.1,0.1,0.1,0.1,0.1,0.2s0,0.2-0.1,0.2C18.3,21.5,18.3,21.5,18.2,21.5z M18.4,24.8H18v-2.9h0.4V24.8z"/>
	<path d="M19,24.9v-0.4c0.1,0,0.2-0.1,0.3-0.3c0.1-0.2,0.2-0.5,0.2-0.9l0.2-1.4h2v2.9h-0.4v-2.5h-1.2L20,23.4
		c-0.1,0.5-0.2,0.9-0.3,1.1C19.5,24.8,19.2,24.9,19,24.9z"/>
	<path d="M22.6,21.9h0.4v1.1h1.1c0.3,0,0.5,0.1,0.7,0.3c0.2,0.2,0.2,0.4,0.2,0.6s-0.1,0.5-0.2,0.6c-0.2,0.2-0.4,0.3-0.7,0.3h-1.5
		V21.9z M24.1,23.5h-1v1h1c0.2,0,0.3,0,0.4-0.1c0.1-0.1,0.1-0.2,0.1-0.4c0-0.1,0-0.3-0.1-0.4C24.4,23.5,24.3,23.5,24.1,23.5z"/>
	<path d="M28.3,24.8h-0.6l-1-1.3L26.2,24v0.8h-0.4v-2.9h0.4v1.5l1.5-1.5h0.6L27,23.3L28.3,24.8z"/>
	<path d="M29.1,21.5c-0.1,0-0.1,0-0.2-0.1c-0.1-0.1-0.1-0.1-0.1-0.2s0-0.2,0.1-0.2c0.1-0.1,0.1-0.1,0.2-0.1c0.1,0,0.2,0,0.2,0.1
		c0.1,0.1,0.1,0.1,0.1,0.2s0,0.2-0.1,0.2C29.2,21.5,29.1,21.5,29.1,21.5z M29.3,24.8h-0.4v-2.9h0.4V24.8z"/>
	<path d="M31.5,24.9c-0.4,0-0.8-0.1-1-0.4S30,23.8,30,23.4c0-0.4,0.1-0.8,0.4-1.1s0.6-0.4,1-0.4c0.4,0,0.8,0.2,1.1,0.5l-0.3,0.3
		c-0.2-0.3-0.4-0.4-0.7-0.4c-0.3,0-0.5,0.1-0.7,0.3s-0.3,0.5-0.3,0.8s0.1,0.6,0.3,0.8c0.2,0.2,0.4,0.3,0.7,0.3s0.5-0.1,0.7-0.4
		l0.3,0.3C32.3,24.8,31.9,24.9,31.5,24.9z"/>
	<path d="M34.1,24.8h-0.5v-2.5h-0.8v-0.4H35v0.4h-0.8V24.8z"/>
	<path d="M35.6,21.9H36v1.1h1.1c0.3,0,0.5,0.1,0.7,0.3c0.2,0.2,0.2,0.4,0.2,0.6s-0.1,0.5-0.2,0.6c-0.2,0.2-0.4,0.3-0.7,0.3h-1.5
		V21.9z M37,23.5h-1v1h1c0.2,0,0.3,0,0.4-0.1c0.1-0.1,0.1-0.2,0.1-0.4c0-0.1,0-0.3-0.1-0.4C37.3,23.5,37.2,23.5,37,23.5z"/>
	<path d="M41.9,24.8h-1.6v-2.9h1.6c0.3,0,0.5,0.1,0.6,0.2c0.1,0.1,0.2,0.3,0.2,0.5c0,0.2,0,0.3-0.1,0.4c-0.1,0.1-0.2,0.2-0.3,0.2
		c0.1,0,0.3,0.1,0.4,0.3c0.1,0.1,0.2,0.3,0.2,0.5c0,0.2-0.1,0.4-0.2,0.6C42.3,24.8,42.1,24.8,41.9,24.8z M41.8,23.2
		c0.1,0,0.2,0,0.3-0.1c0.1-0.1,0.1-0.2,0.1-0.3c0-0.1,0-0.2-0.1-0.3c-0.1-0.1-0.2-0.1-0.3-0.1h-1.1v0.8H41.8z M41.8,24.4
		c0.1,0,0.3,0,0.3-0.1s0.1-0.2,0.1-0.3c0-0.1,0-0.2-0.1-0.3s-0.2-0.1-0.3-0.1h-1.1v0.9H41.8z"/>
	<path d="M44.2,21.2c0,0.2,0,0.3-0.1,0.5s-0.2,0.3-0.4,0.4L43.5,22c0.1-0.1,0.2-0.1,0.3-0.3c0.1-0.1,0.1-0.2,0.1-0.3c0,0,0,0-0.1,0
		c-0.1,0-0.2,0-0.2-0.1c-0.1-0.1-0.1-0.1-0.1-0.2s0-0.2,0.1-0.2c0.1-0.1,0.1-0.1,0.2-0.1c0.1,0,0.2,0,0.3,0.1
		C44.1,21,44.2,21.1,44.2,21.2z"/>
	<path d="M45.4,24.8h-0.5l0.8-1.1c-0.2,0-0.4-0.1-0.5-0.3c-0.1-0.2-0.2-0.4-0.2-0.6c0-0.3,0.1-0.5,0.2-0.6c0.2-0.2,0.4-0.3,0.7-0.3
		h1.5v2.9h-0.5v-1.1h-0.8L45.4,24.8z M45.8,23.3h1v-1h-1c-0.2,0-0.3,0-0.4,0.1s-0.1,0.2-0.1,0.4c0,0.1,0,0.3,0.1,0.4
		S45.7,23.3,45.8,23.3z"/>
	<path d="M49.3,24.9c-0.6,0-1-0.2-1.3-0.5l0.2-0.3c0.3,0.3,0.6,0.4,1.1,0.4c0.3,0,0.5,0,0.6-0.1c0.2-0.1,0.2-0.2,0.2-0.4
		c0-0.3-0.3-0.5-0.9-0.5h-0.6v-0.4h0.6c0.3,0,0.5,0,0.6-0.1C50,23,50,22.9,50,22.7c0-0.1-0.1-0.2-0.2-0.3c-0.2-0.1-0.4-0.1-0.6-0.1
		c-0.4,0-0.7,0.1-1,0.4L48,22.3c0.3-0.3,0.7-0.5,1.2-0.5c0.4,0,0.7,0.1,1,0.2c0.2,0.1,0.4,0.3,0.4,0.6c0,0.2-0.1,0.4-0.2,0.5
		s-0.3,0.2-0.5,0.2c0.2,0,0.4,0.1,0.6,0.2c0.2,0.1,0.3,0.3,0.3,0.5c0,0.2-0.1,0.5-0.4,0.6C50,24.8,49.7,24.9,49.3,24.9z"/>
	<path d="M51.8,24.8h-0.4v-2.9h0.4v1.2h1.5v-1.2h0.4v2.9h-0.4v-1.3h-1.5V24.8z"/>
	<path d="M54.8,21.5c-0.1,0-0.1,0-0.2-0.1c-0.1-0.1-0.1-0.1-0.1-0.2s0-0.2,0.1-0.2c0.1-0.1,0.1-0.1,0.2-0.1c0.1,0,0.2,0,0.2,0.1
		c0.1,0.1,0.1,0.1,0.1,0.2s0,0.2-0.1,0.2C55,21.5,54.9,21.5,54.8,21.5z M55.1,24.8h-0.4v-2.9h0.4V24.8z"/>
	<path d="M57.6,24.8H56v-2.9h1.6c0.3,0,0.5,0.1,0.6,0.2c0.1,0.1,0.2,0.3,0.2,0.5c0,0.2,0,0.3-0.1,0.4c-0.1,0.1-0.2,0.2-0.3,0.2
		c0.1,0,0.3,0.1,0.4,0.3c0.1,0.1,0.2,0.3,0.2,0.5c0,0.2-0.1,0.4-0.2,0.6C58.1,24.8,57.9,24.8,57.6,24.8z M57.5,23.2
		c0.1,0,0.2,0,0.3-0.1c0.1-0.1,0.1-0.2,0.1-0.3c0-0.1,0-0.2-0.1-0.3c-0.1-0.1-0.2-0.1-0.3-0.1h-1.1v0.8H57.5z M57.5,24.4
		c0.1,0,0.3,0,0.3-0.1S58,24.1,58,24c0-0.1,0-0.2-0.1-0.3s-0.2-0.1-0.3-0.1h-1.1v0.9H57.5z"/>
	<path d="M59.8,22.5c-0.1,0.1-0.1,0.1-0.2,0.1s-0.2,0-0.2-0.1c-0.1-0.1-0.1-0.1-0.1-0.2c0-0.1,0-0.2,0.1-0.2
		c0.1-0.1,0.1-0.1,0.2-0.1s0.2,0,0.2,0.1c0.1,0.1,0.1,0.1,0.1,0.2C59.9,22.3,59.8,22.4,59.8,22.5z M59.8,24.8
		c-0.1,0.1-0.1,0.1-0.2,0.1s-0.2,0-0.2-0.1c-0.1-0.1-0.1-0.1-0.1-0.2c0-0.1,0-0.2,0.1-0.2c0.1-0.1,0.1-0.1,0.2-0.1s0.2,0,0.2,0.1
		c0.1,0.1,0.1,0.1,0.1,0.2C59.9,24.7,59.8,24.7,59.8,24.8z"/>
</g>
<g class="st3">
	<path d="M82.3,24.8h-0.6L80.1,23l-0.4,0.5v1.3h-0.5v-4h0.5v2.1l1.8-2.1h0.6l-1.7,1.9L82.3,24.8z"/>
	<path d="M83,21.5c-0.1,0-0.1,0-0.2-0.1c-0.1-0.1-0.1-0.1-0.1-0.2s0-0.2,0.1-0.2c0.1-0.1,0.1-0.1,0.2-0.1c0.1,0,0.2,0,0.2,0.1
		c0.1,0.1,0.1,0.1,0.1,0.2s0,0.2-0.1,0.2C83.2,21.5,83.1,21.5,83,21.5z M83.3,24.8h-0.5v-2.9h0.5V24.8z"/>
	<path d="M83.8,24.9v-0.4c0.1,0,0.2-0.1,0.3-0.3c0.1-0.2,0.2-0.5,0.2-0.9l0.2-1.4h2v2.9h-0.4v-2.5h-1.2l-0.1,1.1
		c-0.1,0.5-0.2,0.9-0.3,1.1C84.3,24.8,84.1,24.9,83.8,24.9z"/>
	<path d="M87.5,21.9h0.5v1.1H89c0.3,0,0.5,0.1,0.7,0.3c0.2,0.2,0.2,0.4,0.2,0.6s-0.1,0.5-0.2,0.6s-0.4,0.3-0.7,0.3h-1.5V21.9z
		 M89,23.5h-1v1h1c0.2,0,0.3,0,0.4-0.1c0.1-0.1,0.1-0.2,0.1-0.4c0-0.1,0-0.3-0.1-0.4C89.2,23.5,89.1,23.5,89,23.5z"/>
	<path d="M93.1,24.8h-0.6l-1-1.3L91,24v0.8h-0.5v-2.9H91v1.5l1.5-1.5h0.6l-1.3,1.3L93.1,24.8z"/>
	<path d="M93.9,21.5c-0.1,0-0.1,0-0.2-0.1c-0.1-0.1-0.1-0.1-0.1-0.2s0-0.2,0.1-0.2c0.1-0.1,0.1-0.1,0.2-0.1c0.1,0,0.2,0,0.2,0.1
		c0.1,0.1,0.1,0.1,0.1,0.2s0,0.2-0.1,0.2C94.1,21.5,94,21.5,93.9,21.5z M94.1,24.8h-0.5v-2.9h0.5V24.8z"/>
	<path d="M96.3,24.9c-0.4,0-0.8-0.1-1-0.4c-0.3-0.3-0.4-0.7-0.4-1.1c0-0.4,0.1-0.8,0.4-1.1c0.3-0.3,0.6-0.4,1-0.4
		c0.4,0,0.8,0.2,1.1,0.5l-0.3,0.3c-0.2-0.3-0.4-0.4-0.7-0.4c-0.3,0-0.5,0.1-0.7,0.3c-0.2,0.2-0.3,0.5-0.3,0.8s0.1,0.6,0.3,0.8
		c0.2,0.2,0.4,0.3,0.7,0.3c0.3,0,0.5-0.1,0.7-0.4l0.3,0.3C97.1,24.8,96.8,24.9,96.3,24.9z"/>
	<path d="M99,24.8h-0.5v-2.5h-0.8v-0.4h2.1v0.4H99V24.8z"/>
	<path d="M100.4,21.9h0.4v1.1h1.1c0.3,0,0.5,0.1,0.7,0.3c0.2,0.2,0.2,0.4,0.2,0.6s-0.1,0.5-0.2,0.6c-0.2,0.2-0.4,0.3-0.7,0.3h-1.5
		V21.9z M101.9,23.5h-1v1h1c0.2,0,0.3,0,0.4-0.1s0.1-0.2,0.1-0.4c0-0.1,0-0.3-0.1-0.4S102.1,23.5,101.9,23.5z"/>
	<path d="M106.1,24.9c-0.6,0-1-0.2-1.3-0.5l0.2-0.3c0.3,0.3,0.6,0.4,1.1,0.4c0.3,0,0.5,0,0.6-0.1c0.2-0.1,0.2-0.2,0.2-0.4
		c0-0.3-0.3-0.5-0.9-0.5h-0.6v-0.4h0.6c0.3,0,0.5,0,0.6-0.1c0.2-0.1,0.2-0.2,0.2-0.4c0-0.1-0.1-0.2-0.2-0.3
		c-0.2-0.1-0.4-0.1-0.6-0.1c-0.4,0-0.7,0.1-1,0.4l-0.2-0.3c0.3-0.3,0.7-0.5,1.2-0.5c0.4,0,0.7,0.1,1,0.2c0.2,0.1,0.4,0.3,0.4,0.6
		c0,0.2-0.1,0.4-0.2,0.5s-0.3,0.2-0.5,0.2c0.2,0,0.4,0.1,0.6,0.2c0.2,0.1,0.3,0.3,0.3,0.5c0,0.2-0.1,0.5-0.4,0.6
		C106.9,24.8,106.5,24.9,106.1,24.9z"/>
	<path d="M110.4,24.8H110v-0.3c-0.2,0.3-0.6,0.4-1,0.4c-0.3,0-0.5-0.1-0.7-0.3c-0.2-0.2-0.3-0.4-0.3-0.7c0-0.3,0.1-0.5,0.3-0.7
		s0.4-0.2,0.7-0.2c0.4,0,0.7,0.1,1,0.4v-0.5c0-0.2-0.1-0.3-0.2-0.5s-0.3-0.2-0.5-0.2c-0.3,0-0.6,0.1-0.9,0.4l-0.2-0.3
		c0.3-0.3,0.7-0.5,1.2-0.5c0.3,0,0.6,0.1,0.8,0.2c0.2,0.2,0.3,0.4,0.3,0.7V24.8z M109.2,24.6c0.4,0,0.6-0.1,0.8-0.4v-0.5
		c-0.2-0.2-0.4-0.4-0.8-0.4c-0.2,0-0.4,0.1-0.5,0.2c-0.1,0.1-0.2,0.3-0.2,0.5c0,0.2,0.1,0.3,0.2,0.5C108.8,24.5,109,24.6,109.2,24.6
		z"/>
	<path d="M113.4,21.9v0.4h-1.6v2.5h-0.4v-2.9H113.4z"/>
	<path d="M114.4,24.8H114v-2.9h0.5v2.2l1.5-2.2h0.4v2.9h-0.5v-2.3L114.4,24.8z"/>
	<path d="M118.5,24.9c-0.4,0-0.8-0.2-1-0.5c-0.3-0.3-0.4-0.7-0.4-1.2c0-0.7,0.1-1.2,0.4-1.5s0.6-0.5,1.1-0.6c0.3,0,0.5-0.1,0.6-0.1
		s0.2-0.1,0.2-0.2h0.4c0,0.1,0,0.2-0.1,0.3c-0.1,0.1-0.2,0.1-0.3,0.2c-0.1,0-0.2,0.1-0.4,0.1c-0.1,0-0.2,0-0.4,0.1
		c-0.4,0.1-0.7,0.2-0.9,0.3s-0.3,0.4-0.4,0.7c0.3-0.4,0.6-0.6,1.1-0.6c0.4,0,0.7,0.1,1,0.4s0.4,0.7,0.4,1.1c0,0.4-0.1,0.8-0.4,1.1
		S119,24.9,118.5,24.9z M117.8,24.2c0.2,0.2,0.4,0.3,0.7,0.3s0.5-0.1,0.7-0.3c0.2-0.2,0.3-0.5,0.3-0.8c0-0.3-0.1-0.6-0.3-0.8
		s-0.4-0.3-0.7-0.3s-0.5,0.1-0.7,0.3s-0.3,0.5-0.3,0.8C117.6,23.7,117.7,24,117.8,24.2z"/>
	<path d="M120.4,24.9v-0.4c0.1,0,0.2-0.1,0.3-0.3c0.1-0.2,0.2-0.5,0.2-0.9l0.2-1.4h2v2.9h-0.4v-2.5h-1.2l-0.1,1.1
		c-0.1,0.5-0.2,0.9-0.3,1.1C120.9,24.8,120.7,24.9,120.4,24.9z"/>
	<path d="M124.5,24.8H124v-2.9h0.5v2.2l1.5-2.2h0.4v2.9H126v-2.3L124.5,24.8z"/>
	<path d="M129.8,24.8h-0.5l-0.9-1.2l-0.9,1.2H127l1.1-1.5l-1-1.4h0.5l0.8,1.1l0.8-1.1h0.5l-1.1,1.4L129.8,24.8z"/>
	<path d="M130.7,22.5c-0.1,0.1-0.1,0.1-0.2,0.1s-0.2,0-0.2-0.1c-0.1-0.1-0.1-0.1-0.1-0.2c0-0.1,0-0.2,0.1-0.2
		c0.1-0.1,0.1-0.1,0.2-0.1s0.2,0,0.2,0.1c0.1,0.1,0.1,0.1,0.1,0.2C130.8,22.3,130.8,22.4,130.7,22.5z M130.7,24.8
		c-0.1,0.1-0.1,0.1-0.2,0.1s-0.2,0-0.2-0.1c-0.1-0.1-0.1-0.1-0.1-0.2c0-0.1,0-0.2,0.1-0.2c0.1-0.1,0.1-0.1,0.2-0.1s0.2,0,0.2,0.1
		c0.1,0.1,0.1,0.1,0.1,0.2C130.8,24.7,130.8,24.7,130.7,24.8z"/>
</g>
<g class="st3">
	<path d="M73.7,44.9c-0.6,0-1.1-0.2-1.4-0.6l0.3-0.3c0.3,0.4,0.6,0.5,1.1,0.5c0.3,0,0.5-0.1,0.7-0.2c0.2-0.2,0.3-0.4,0.3-0.6
		c0-0.3-0.1-0.5-0.3-0.6c-0.2-0.2-0.4-0.2-0.7-0.2c-0.4,0-0.7,0.1-0.9,0.4L72.4,43v-2.2h2.4v0.4h-2v1.4c0.2-0.2,0.6-0.4,0.9-0.4
		c0.4,0,0.7,0.1,0.9,0.3c0.2,0.2,0.4,0.5,0.4,0.9c0,0.4-0.1,0.7-0.4,1C74.4,44.8,74.1,44.9,73.7,44.9z"/>
	<path d="M77.2,44.9c-0.3,0-0.5-0.1-0.7-0.2c-0.2-0.1-0.4-0.3-0.5-0.5c-0.1-0.2-0.2-0.4-0.3-0.7c-0.1-0.2-0.1-0.5-0.1-0.7
		s0-0.5,0.1-0.7c0.1-0.2,0.1-0.5,0.3-0.7c0.1-0.2,0.3-0.4,0.5-0.5c0.2-0.1,0.4-0.2,0.7-0.2c0.3,0,0.5,0.1,0.7,0.2
		c0.2,0.1,0.4,0.3,0.5,0.5c0.1,0.2,0.2,0.4,0.3,0.7c0.1,0.2,0.1,0.5,0.1,0.7s0,0.5-0.1,0.7c-0.1,0.2-0.1,0.5-0.3,0.7
		c-0.1,0.2-0.3,0.4-0.5,0.5C77.7,44.9,77.5,44.9,77.2,44.9z M76.6,44.2c0.2,0.2,0.4,0.2,0.6,0.2c0.2,0,0.4-0.1,0.6-0.2
		c0.2-0.2,0.3-0.4,0.3-0.6c0.1-0.2,0.1-0.5,0.1-0.8s0-0.5-0.1-0.8c-0.1-0.2-0.2-0.4-0.3-0.6c-0.2-0.2-0.4-0.2-0.6-0.2
		c-0.2,0-0.4,0.1-0.6,0.2c-0.2,0.2-0.3,0.4-0.3,0.6c-0.1,0.2-0.1,0.5-0.1,0.8s0,0.5,0.1,0.8C76.4,43.9,76.5,44.1,76.6,44.2z"/>
</g>
<g class="st3">
	<path d="M127.6,44.8h-0.5v-3.3l-0.6,0.7l-0.3-0.3l1-1h0.4V44.8z"/>
	<path d="M129.6,44.9c-0.3,0-0.6-0.1-0.9-0.2s-0.4-0.3-0.6-0.5l0.3-0.3c0.1,0.2,0.3,0.3,0.5,0.4c0.2,0.1,0.4,0.1,0.6,0.1
		c0.3,0,0.5-0.1,0.7-0.2c0.2-0.1,0.2-0.3,0.2-0.5c0-0.2-0.1-0.4-0.3-0.5c-0.2-0.1-0.4-0.2-0.7-0.2c-0.2,0-0.4,0-0.4,0v-0.5
		c0,0,0.2,0,0.4,0c0.3,0,0.5-0.1,0.7-0.2c0.2-0.1,0.3-0.3,0.3-0.5c0-0.2-0.1-0.4-0.3-0.5c-0.2-0.1-0.4-0.2-0.6-0.2
		c-0.4,0-0.8,0.2-1.1,0.5l-0.3-0.3c0.3-0.4,0.8-0.6,1.4-0.6c0.4,0,0.7,0.1,1,0.3c0.3,0.2,0.4,0.5,0.4,0.8c0,0.3-0.1,0.5-0.3,0.6
		c-0.2,0.2-0.4,0.3-0.6,0.3c0.2,0,0.4,0.1,0.6,0.3c0.2,0.2,0.3,0.4,0.3,0.7c0,0.3-0.1,0.6-0.4,0.8S130.1,44.9,129.6,44.9z"/>
	<path d="M134.8,44.9c-0.3,0-0.5-0.1-0.7-0.2s-0.4-0.3-0.5-0.5c-0.1-0.2-0.2-0.4-0.3-0.7c-0.1-0.2-0.1-0.5-0.1-0.7s0-0.5,0.1-0.7
		c0.1-0.2,0.1-0.5,0.3-0.7c0.1-0.2,0.3-0.4,0.5-0.5s0.4-0.2,0.7-0.2c0.3,0,0.5,0.1,0.7,0.2c0.2,0.1,0.4,0.3,0.5,0.5
		c0.1,0.2,0.2,0.4,0.3,0.7c0.1,0.2,0.1,0.5,0.1,0.7s0,0.5-0.1,0.7c-0.1,0.2-0.1,0.5-0.3,0.7c-0.1,0.2-0.3,0.4-0.5,0.5
		C135.3,44.9,135,44.9,134.8,44.9z M134.2,44.2c0.2,0.2,0.4,0.2,0.6,0.2s0.4-0.1,0.6-0.2s0.3-0.4,0.3-0.6c0.1-0.2,0.1-0.5,0.1-0.8
		s0-0.5-0.1-0.8c-0.1-0.2-0.2-0.4-0.3-0.6s-0.4-0.2-0.6-0.2s-0.4,0.1-0.6,0.2c-0.2,0.2-0.3,0.4-0.3,0.6c-0.1,0.2-0.1,0.5-0.1,0.8
		s0,0.5,0.1,0.8C133.9,43.9,134,44.1,134.2,44.2z"/>
	<path d="M138.4,44.9c-0.3,0-0.5-0.1-0.7-0.2s-0.4-0.3-0.5-0.5c-0.1-0.2-0.2-0.4-0.3-0.7c-0.1-0.2-0.1-0.5-0.1-0.7s0-0.5,0.1-0.7
		c0.1-0.2,0.1-0.5,0.3-0.7c0.1-0.2,0.3-0.4,0.5-0.5s0.4-0.2,0.7-0.2c0.3,0,0.5,0.1,0.7,0.2c0.2,0.1,0.4,0.3,0.5,0.5
		c0.1,0.2,0.2,0.4,0.3,0.7c0.1,0.2,0.1,0.5,0.1,0.7s0,0.5-0.1,0.7c-0.1,0.2-0.1,0.5-0.3,0.7c-0.1,0.2-0.3,0.4-0.5,0.5
		C138.9,44.9,138.7,44.9,138.4,44.9z M137.8,44.2c0.2,0.2,0.4,0.2,0.6,0.2s0.4-0.1,0.6-0.2s0.3-0.4,0.3-0.6c0.1-0.2,0.1-0.5,0.1-0.8
		s0-0.5-0.1-0.8c-0.1-0.2-0.2-0.4-0.3-0.6s-0.4-0.2-0.6-0.2s-0.4,0.1-0.6,0.2c-0.2,0.2-0.3,0.4-0.3,0.6c-0.1,0.2-0.1,0.5-0.1,0.8
		s0,0.5,0.1,0.8C137.6,43.9,137.7,44.1,137.8,44.2z"/>
	<path d="M142.1,44.9c-0.3,0-0.5-0.1-0.7-0.2c-0.2-0.1-0.4-0.3-0.5-0.5c-0.1-0.2-0.2-0.4-0.3-0.7c-0.1-0.2-0.1-0.5-0.1-0.7
		s0-0.5,0.1-0.7c0.1-0.2,0.1-0.5,0.3-0.7c0.1-0.2,0.3-0.4,0.5-0.5c0.2-0.1,0.4-0.2,0.7-0.2c0.3,0,0.5,0.1,0.7,0.2s0.4,0.3,0.5,0.5
		c0.1,0.2,0.2,0.4,0.3,0.7c0.1,0.2,0.1,0.5,0.1,0.7s0,0.5-0.1,0.7c-0.1,0.2-0.1,0.5-0.3,0.7c-0.1,0.2-0.3,0.4-0.5,0.5
		S142.4,44.9,142.1,44.9z M141.5,44.2c0.2,0.2,0.4,0.2,0.6,0.2c0.2,0,0.4-0.1,0.6-0.2c0.2-0.2,0.3-0.4,0.3-0.6
		c0.1-0.2,0.1-0.5,0.1-0.8s0-0.5-0.1-0.8c-0.1-0.2-0.2-0.4-0.3-0.6c-0.2-0.2-0.4-0.2-0.6-0.2c-0.2,0-0.4,0.1-0.6,0.2
		s-0.3,0.4-0.3,0.6c-0.1,0.2-0.1,0.5-0.1,0.8s0,0.5,0.1,0.8C141.2,43.9,141.3,44.1,141.5,44.2z"/>
</g>
<g>
	<g>
		<defs>
			<rect id="SVGID_7_" x="80.7" y="40.1" width="44.5" height="6"/>
		</defs>
		<clipPath id="SVGID_8_">
			<use xlink:href="#SVGID_7_"  style="overflow:visible;"/>
		</clipPath>
		
			<linearGradient id="SVGID_9_" gradientUnits="userSpaceOnUse" x1="-1720.0695" y1="2.1011" x2="-1719.0695" y2="2.1011" gradientTransform="matrix(44.5 0 0 44.5 76623.7969 -50.4004)">
			<stop  offset="0" style="stop-color:#EFB9B6"/>
			<stop  offset="0.4909" style="stop-color:#D54432"/>
			<stop  offset="1" style="stop-color:#351514"/>
		</linearGradient>
		<rect x="80.7" y="40.1" class="st4" width="44.5" height="6"/>
	</g>
</g>
</svg>
