<?xml version="1.0" encoding="utf-8"?>
<!-- Generator: Adobe Illustrator 25.2.3, SVG Export Plug-In . SVG Version: 6.00 Build 0)  -->
<svg version="1.1" id="Layer_1" xmlns="http://www.w3.org/2000/svg" xmlns:xlink="http://www.w3.org/1999/xlink" x="0px" y="0px"
	 viewBox="0 0 158 88.9" style="enable-background:new 0 0 158 88.9;" xml:space="preserve">
<style type="text/css">
	.st0{clip-path:url(#SVGID_2_);fill:none;stroke:#000000;stroke-width:0.5;}
	.st1{font-family:'ProximaNova-Regular';}
	.st2{font-size:6px;}
	.st3{clip-path:url(#SVGID_4_);fill:url(#SVGID_5_);}
</style>
<g>
	<defs>
		<rect id="SVGID_1_" x="1.8" y="13.1" width="154.4" height="57.1"/>
	</defs>
	<clipPath id="SVGID_2_">
		<use xlink:href="#SVGID_1_"  style="overflow:visible;"/>
	</clipPath>
	<circle class="st0" cx="34.8" cy="56.1" r="5"/>
	<circle class="st0" cx="34.8" cy="53.1" r="8"/>
	<circle class="st0" cx="34.8" cy="49.6" r="11.5"/>
</g>
<text transform="matrix(1 0 0 1 30.1188 67.5958)" class="st1 st2">100</text>
<text transform="matrix(1 0 0 1 25.673 36.5939)" class="st1 st2">10 000</text>
<text transform="matrix(1 0 0 1 13.8946 24.8458)" class="st1 st2">Кількість в’язнів:</text>
<text transform="matrix(1 0 0 1 78.7486 24.8458)" class="st1 st2">Кількість загиблих:</text>
<text transform="matrix(1 0 0 1 71.8668 44.8439)" class="st1 st2">50</text>
<text transform="matrix(1 0 0 1 126.0045 44.8439)" class="st1 st2">13 000</text>
<g>
	<defs>
		<rect id="SVGID_3_" x="80.7" y="40.1" width="44.5" height="6"/>
	</defs>
	<clipPath id="SVGID_4_">
		<use xlink:href="#SVGID_3_"  style="overflow:visible;"/>
	</clipPath>
	
		<linearGradient id="SVGID_5_" gradientUnits="userSpaceOnUse" x1="-859.8443" y1="594.0223" x2="-858.8443" y2="594.0223" gradientTransform="matrix(44.5 0 0 -44.5 38343.793 26477.0996)">
		<stop  offset="0" style="stop-color:#EFB9B6"/>
		<stop  offset="0.4909" style="stop-color:#D54432"/>
		<stop  offset="1" style="stop-color:#351514"/>
	</linearGradient>
	<rect x="80.7" y="40.1" class="st3" width="44.5" height="6"/>
</g>
</svg>
